/* XPM */
static char *_ed5ba706a25485dca377adf8fe9d490qI5OEU2VNc9zGXKz[] = {
/* columns rows colors chars-per-pixel */
"64 64 256 2 ",
"   c #080907",
".  c #021704",
"X  c #110E11",
"o  c #2C1805",
"O  c #2F160F",
"+  c #052904",
"@  c #0D3011",
"#  c #312A0A",
"$  c #151828",
"%  c #0D163A",
"&  c #18183A",
"*  c #090D2C",
"=  c #211C35",
"-  c #241A2D",
";  c #1B2924",
":  c #1C2F2D",
">  c #232C2B",
",  c #272927",
"<  c #27342B",
"1  c #243432",
"2  c #2B3533",
"3  c #2C3B3C",
"4  c #283837",
"5  c #313D3C",
"6  c #343935",
"7  c #2F2D32",
"8  c #4A1B14",
"9  c #541B16",
"0  c #491206",
"q  c #4D2B12",
"w  c #632412",
"e  c #4B3531",
"r  c #64352A",
"t  c #114912",
"y  c #2F4A0C",
"u  c #34423C",
"i  c #3A433D",
"p  c #36483B",
"a  c #2E4E31",
"s  c #346F36",
"d  c #175F17",
"f  c #4B4E0F",
"g  c #4E4B35",
"h  c #6E4936",
"j  c #4F6F37",
"k  c #6F6D31",
"l  c #606218",
"z  c #161C44",
"x  c #0E1C44",
"c  c #1B234C",
"v  c #18264A",
"b  c #1D2655",
"n  c #24254A",
"m  c #2B3A44",
"M  c #373B47",
"N  c #21255C",
"B  c #242A5C",
"V  c #242956",
"C  c #27345C",
"Z  c #343759",
"A  c #332E44",
"S  c #252B64",
"D  c #262C65",
"F  c #2B3465",
"G  c #323968",
"H  c #4B3C49",
"J  c #344343",
"K  c #3A4644",
"L  c #3B4B45",
"P  c #3A464C",
"I  c #3D4B4B",
"U  c #35464A",
"Y  c #3C5347",
"T  c #3C4C53",
"R  c #394957",
"E  c #3D5155",
"W  c #2F414C",
"Q  c #3C6842",
"!  c #364766",
"~  c #3D4E6E",
"^  c #424D4C",
"/  c #454947",
"(  c #594A49",
")  c #44534C",
"_  c #47554A",
"`  c #555548",
"'  c #444D54",
"]  c #445453",
"[  c #4B5554",
"{  c #4B5A54",
"}  c #44545B",
"|  c #4C5C5C",
" . c #465959",
".. c #525C5B",
"X. c #555955",
"o. c #524C5A",
"O. c #6B5251",
"+. c #4E6259",
"@. c #53635D",
"#. c #57665C",
"$. c #46704A",
"%. c #706655",
"&. c #445563",
"*. c #4B5C63",
"=. c #4C5D6B",
"-. c #455869",
";. c #525E64",
":. c #565A67",
">. c #4A5B76",
",. c #4D4C6D",
"<. c #4D6168",
"1. c #546364",
"2. c #5A6463",
"3. c #5A6A64",
"4. c #53656C",
"5. c #5C6C6C",
"6. c #58686B",
"7. c #5B746B",
"8. c #4D6277",
"9. c #536574",
"0. c #5B6C73",
"q. c #53657C",
"w. c #5B6C7B",
"e. c #566977",
"r. c #5E727B",
"t. c #5E7274",
"y. c #646968",
"u. c #786866",
"i. c #63726C",
"p. c #637368",
"a. c #656C76",
"s. c #637273",
"d. c #64757C",
"f. c #6B7A7B",
"g. c #687979",
"h. c #777478",
"j. c #7D5E64",
"k. c #8A3B25",
"l. c #915030",
"z. c #876826",
"x. c #877979",
"c. c #8E726E",
"v. c #936D54",
"b. c #368D2F",
"n. c #3AA539",
"m. c #479A39",
"M. c #508E37",
"N. c #46A23A",
"B. c #479B45",
"V. c #569746",
"C. c #548E50",
"Z. c #61974D",
"A. c #4CA747",
"S. c #66A853",
"D. c #698F71",
"F. c #A58934",
"G. c #AF8E4B",
"H. c #988379",
"J. c #AD946C",
"K. c #9C8D4C",
"L. c #C39F4E",
"P. c #566B83",
"I. c #5B6E84",
"U. c #576887",
"Y. c #5D7183",
"T. c #5E738B",
"R. c #547088",
"E. c #5A6D8B",
"W. c #637483",
"Q. c #6B7C83",
"!. c #62748C",
"~. c #657A8C",
"^. c #6B7D8D",
"/. c #687883",
"(. c #757A84",
"). c #657A92",
"_. c #6A7D94",
"`. c #677A96",
"'. c #6D708D",
"]. c #887E87",
"[. c #6D828B",
"{. c #73838A",
"}. c #6D8193",
"|. c #6E829A",
" X c #6F889E",
".X c #728393",
"XX c #72859C",
"oX c #748A9D",
"OX c #798C98",
"+X c #7E9199",
"@X c #758AA2",
"#X c #798DA4",
"$X c #7689A5",
"%X c #7D92AA",
"&X c #7D92A4",
"*X c #778AAB",
"=X c #958489",
"-X c #98959A",
";X c #8E8D96",
":X c #A58986",
">X c #AD9692",
",X c #B7A49A",
"<X c #8295AC",
"1X c #8699A8",
"2X c #8A9CB4",
"3X c #8699B4",
"4X c #9A97A7",
"5X c #8EA1B8",
"6X c #92A5BC",
"7X c #97AABA",
"8X c #9BA7AE",
"9X c #B8A7A8",
"0X c #B4AAB2",
"qX c #A499A0",
"wX c #C6AD9B",
"eX c #CBB4AA",
"rX c #C9B7B8",
"tX c #D4BCB8",
"yX c #CEB3AB",
"uX c #C19F96",
"iX c #D9C3B9",
"pX c #D5C4B1",
"aX c #E5C9BC",
"sX c #E6C8BA",
"dX c #EBD1BF",
"fX c #F4D4B9",
"gX c #9AACC5",
"hX c #9EB1C2",
"jX c #8FA2C0",
"kX c #A8B2CA",
"lX c #AEC1D2",
"zX c #DAC8C6",
"xX c #D4CCD5",
"cX c #EBCDC3",
"vX c #E5CCC5",
"bX c #EDD2C3",
"nX c #ECD4CB",
"mX c #E7D4C9",
"MX c #F2D5C5",
"NX c #F2D5CB",
"BX c #F4DACD",
"VX c #F7DCCB",
"CX c #ECD8D4",
"ZX c #F3DBD3",
"AX c #F4DDDB",
"SX c #F8DBD6",
"DX c #E2CED4",
"FX c #F9E2D9",
"GX c #F5E2D0",
"HX c #E6DCEA",
"JX c #F0DFE7",
"KX c #E9E2E7",
"LX c #F7E6E6",
"PX c #F8F2F5",
"IX c #DAD7E8",
"UX c #C4B8C2",
/* pixels */
"5X7X7X7XhXhX7X2X2X7X3X).! $XjXjXR.F jXU.N D F F D G D D F F C F C F D G F B F D D S >.>.S b ~ *X%X5X%X*X<X3X<X%X*X@X@X X`.`.).T.",
"7XhXkX7X7X7X7X2X1X2XgX2XZ -.3XkX*XD R.R.S D D F D F D D D F B Z Z B D D F S D F D B ~ G B b R.%X%X%X%X%X$X*X%X<X%X#X@X#X@X X X#X",
"hXhXlXlXhXkXgX7X7X7XgXkXR.v E.kXlX! ! R.S b S D D D D D S F F B S S D S N F D D S B G B b C  XgX%X%X3X5X%X3X6XjX2X3X<X5X5X2X2X5X",
"2X7XhXkX7X7X7X5X6X2X6XjX%Xb G `.kX>.v 8.S b S b D D D D S F S B B F D D N D D D S b B b b C %XgX%X*X%X5X3X<X3X3X<X3X%X<X5X3X%X<X",
".X.X1X1X<X<X<XOX#XoX*X$X@X! v ~  XR.v ! C b S b D D D D S N S S D N N D D N V N N S c b N F *X%X$X`.|. X|. X X`.@X_.).).).).).).",
"&XoX<X1X1X#X#X#XXX#XoX*X%XE.% C 8.q.v b C b b b D D N N N N N S N N N N V N N N N N c b b ~ *X*X%X X$X X X$X X|.`._.`._.}.).R.P.",
"7X1X5XgXhX2X<X1X3X6X3X2XgX2Xv v ! R.b v b v b b N N N N D N N N N N N N V n V V V c b b b U.3X%X5X5X5X3X3X2XjX2X*X<X2X5X<XXX`.).",
"3X1X3XhXhX2X#X<X3XgXgX5XgXgX8.% v 8.C x b b b b b N b b D S c n b N c ,.,.n n V V N b x v E.jX%X%XjXjX5X2X5X5XjX%X<X2X6X<XoXXX@X",
" X}. X&XoX|.}.oX<X<X<XXX3X%XE.x x G C v v b c V n G U.& '.'.z n z n V gXZ & o.jXG z V z b T.%X X_.$X$X@X*XXX@X<XXX_.<X<X'.E.).).",
"|.}.}. X}.}.).|.@X<X*X_.@X X`.b x z F x b x z % = n 0X'.A IX:.z n & ].UX= '.HX4X= & & n m P.|.R.).`.`.!.).T.E.).!.)._.`.I.8.q.8.",
"1X%X%X%X@X@XoXoX<X6X6X3X%X%X2X>.x c x x x c b ,.A = H HXj.4XHXH = H IX4X;XHXIXH = ,.G & ! T.*X X@X@XXX_._._.`.`.`._.<X).'.I.!.I.",
"1X%X1X%X%X%X&X|.oX2X6X6X<X*XjX!.x z x z c x z '.xX0X=XrXJXUXJXUX- 4XJXzXLXLXDX0XDXIX,.& ~  X X*X@X@X@X$XXX#X_.`._.<X*X'.).).`.'.",
"oXXXoX&X&X&X#X|.|.&X3X3X%X*X%X$Xn x z z n z & = j.JXJXSXAXLXCXLXUXDXAXAXCXAXLXLXHX'.& & ,.%X). X$X X|.@X_.$XXX_.)._.XX'.!.!.I.I.",
"T.R.R.~.~.~.~.~.T.).}.).|.`.T.$XG % z % z z = = '.DXSXSXSXNXAXCXJXJXSXNXAXAXnXLX0XH = & U.!.8.P.T.R.P.E.P.E.E.T.U.!.!.q.U.8.q.q.",
"~.~.Y.W.Y.P.~.~.~.~.}._._._.E.$X'.* z z % z A 0XJXJXSXSXNXSXSXFXSXSXSXNXSXvXc.iXJXHX,.n U.T.U.R.P.>.8.P.q.>.P.I.U.U.q.8.q.8.,.>.",
"oX&XXX X~.~.oX#XXXoX<X%X<X@X_.#X`.n * % z = kXJXJXtX:XcXSXNXSXCXSXDXSXNXMXwXbX>XJX-X& V I._.).!.P.P.!.).!.q.I.).'.!.).'._.'.I.q.",
"<X&X&XoX[.R.}.oXoX&X%X%X%X%X X}.*X! % % % z 7 -XAX:X:X:XcXAXSXCXSXNXVXVXeXmXLXaXiXrX* ! I.`.XX_.).T.|._.|.~.q.W._.~._._._..X_.W.",
"oXoX&XoX[.q.R.[.}.oX@X@X&X&X|.}.%X}.* % & $ H DXrX,XLXaX,XnXAXZXCXVXFXpXvXZXVXBXaXCXe.W T.'._.XX`.`.}.|.XXXXT.q.w.!.^._.^..X^./.",
"<.q.T.r.r.8.e.8.8.R.q.w.[.R.Y.w.[.[.x % & = qXAXwXmXCXNXAXtXvXSXCXZXMXaXrXLXFXZXCXLX-XZ U.>.E.8.8.9.8.q.R.Y.q.-.>.8.9.w.I.e.9.=.",
"-.<.e.9.Y.R.e.e.e.R.-.8.T.R.R.r.8.}.v * * ,.qXtXtXnXCXLXLXtXyXCXSXnXGXeX0XqX9XAXDXLX-XZ >.>.8.!.8.8.~ -.-.=.8.<.=.&.&.-.=.! R ' ",
"[./.[.[.oXoX[.[.oX.XW.Y.oXoXoX}.}.oXE.* $ X x.vXDXSXzX=X0XJXwXvXZXAXCXrX=X0X-X0XLXLX;X>.'.P.!.|.@X}.[.Y.w.Y.~.OX~.Y.w.d.a.=.-.w.",
"oX^.XXoXOX.X[.[.|.oX}.9.}.&X&X}.|.~.P.m * - 9XCXDXzXx.kX-XqXiXvXFXCXFX9XD.1XKX-XzXLX;X(._.w.~.|.oX X%X}.Y. X|.+XOX^.W.'.!.9.=.e.",
"[.w.}.OXOX}.T.[.^.[.[.9.~.oXoX^.Y.~._.Z * H rXDXSX=XxXkXa.].AXBXZXZXAXqX-X$ xXxXrXLXu.'.OX^.R.T.}.[.&XoX~.[.&X1X<X/.w.w.a.q.:.&.",
"e.E <.Y.[.Y.e.r.W.9.Y.-.9.Y.P.e.e.8.E.! * H 0XSXrXqXPXHXA :.DXNXNXZXzXxXKX  8XIX0XDXqXzXd.e.r.<.8.9.T.[.w.9.}.1XOX/.e.=.8.:.-.R ",
"R E R &.<.=.=.*.E <.&.&.&.>.-.=.=.>.-.-.* H yXSX9X0XPXPXH ' JXNXnXCXGXzX;X  ;XPX9XDXtXrX'.o.<.-.E E R <.*.~ w.w.9.:.' &.R Z R m ",
"<.*.&.=.4.w.w.e.~ <.9.e.d./.r.e._.'.,.9.,.H tXDXuXUXPX'.X g AXNXSXNXFX9XX   ;XPXuXDX>X=X(.W..X{.R.8.-.e.W.r./.d.=.&.&.:.} m W M ",
"0.0.4.0./.^.^.d.-.4.e.r.^..X^.W..X(.d.;XJXc.:XJX:XzXJX- X e BXGXNXnXFXeX# X -XPX9XtXc.9X;X(.2X7X&X[.r./.+X&X.X/.w.9.0.I.:.R R } ",
"0.9.0.d.[.OX(.Q.a.9.e.r..XOX.X/./.{.Q.8X'.uX:XSX>XzXKX(   g GXfXNXBXBXsXg 6 pXLXyXyXc.vXqX(.4X7X1XOX.Xr.{.1X1X/.^.a.a.a.e.o.R ' ",
"4.*.4.9.d.(./.Q.e.=.e.w.(..X^./.0.w.f.x.h.%.c.tX9XeXGXD.k c.MXMXBXdXVXfXwXJ.dXAXiXiXc.0X-XQ.1X&X+XOXOXt.r.+X1XQ.Q.9.:.9.:.&.P P ",
"] P T U P } } &.} T &.&.9.<.-.=.4.*.2.=Xx.O.c.rXtX,XPX,XpXwXdXVXNXiXGXVXpXsXPXKXSXwXc.yX(.7.[.e.t.r.r.<.} Q.1X0.*.&.' Z ' W m A ",
"<.*.;.} } =.&. .} T } } &.&.R &.! } o.0X:Xv.O.=XzXiXPXBXwXsXVXbXAXeXH.GXfXfXGXmXnXc.c.,X:.*.<.E E -.E -.R 4.d.*.P P 4 1 m m 1 = ",
"Q.Q.(.0.0.(.Q.d.w.9.4.0.d.W.*.4.0./.y.0X=XH O.c.rXvXdXGXVXfXVXmXZXeXK.GXfXfXdXBXzXj.:Xx.:.{.[.8.7.7.4.[.d./.d.0.9.:.m m m M W M ",
"d.(.Q.s.4.Q.Q.Q.d.d.a.0.d./.1.4.r.g.d.qX=XH e c.>XmXvXvXbXbXcXMXFXH.wXVXfXVXMXBXiXD.9Xy.y.OX+Xr.4.t.[.+X+Xt.t.s.9.s. .m P P *.1.",
"f.f.f.a.;.5.a.a.s.a.0.0.0.d.4.=.r.g.a.h.>XO.H O.:XaXvXbXbXMXfXMXNXuXaXNXNXNXBXNXzXCXqX:.5.{.+Xg.<.<.D.1X[.t.t.t.0.t.<.J J m *.OX",
"f.f.s.6.| [ *.*.1.1.6.0.0.5.6. .r.t.(.a.].:XH O.c.tXcXvXaXbXdXMXVXbXBXcXMXNXcXZXiX0Xh.2.a.OX{.[.<.+.g.2X[.t.D.r.g.t.4.U m 3 [ OX",
"[ } T ' K m J M W P I ' } }  .W  .&.,.:.Z j.;XO.c.yXbXaXdXbXdXMXbXNXbXVXMXVXdXCXtXu.2.#.1.g.r.t.<.E 7.{.0.<.9.<.<. .E m 3 4 J ;.",
"1 3 4 m J m J 4 4 M m 3 P I P M U T T J / / u.u.j.,XcXsXfXsXMXfXfXsXaXdXsXcXBXZX0X_ ^ I U E E E U W U E U W W J m 4 4 1 4 1 1 R ",
"M J I  .| ..| T K }  .' ;.5.*.| <.*.<.6.| ..o.( u.:XcXcXsXsXsXpXwXpXpXaXdXbXmXAX,X/ ..| E E E <.E U U U W u 4 E } m m J M W m E ",
"T ] 1.5.g.g.s.1. .;.a.1.5.d.6.6.0.t.t.t.g.g.a.O.j.c.tXcXsXiXsXyXbXVXmXMXmXGXaXKX=XX.f.Q.7.-.E Y.<.*. . .<.E E 6.Q.6.T [  .T I ' ",
"T ] 5.s.f.{.s.5.;.1.s.1. .a.:.1.6.w.g.g.f.f.y.X.:.c.yXNXsXMXfXMXsXwXdXdXdXmXCXpXy.i.s.9.D.-.+.[.t.+.<.E 7. .E 1.g.d.1.*.] I P U ",
"{ Y 4.i.D.s.i.f.s.1.5.1.I 1.5...1.0.g.[.t./.g.2.O.u.=XcXsXdXMXMXeXJ.VXdXmXmXmXH.#.i.4.*.r.4.<.[.[.1.1.1.5.| [ | 5.g.(.6.2. . .' ",
"1.] 1.t.Q.d.s.f.5.| 2.;.K  .1.1.| 5.r.D.t.D.[.i.X.y.x.,XcXMXsXsXsXyXbXdXmXCX-Xp.#.i.t.1.0.<. .<.5.@.1.1.5.1.| | 5.g.D.{.s.| [  .",
"E u u Y @.] ] [ T K I J 3 M L ' J E E E E  .@.@.[ ( %.c.yXsXsXMXVXcXMXaXBX>X( X.) @.1. .E E T J ] I  . .1. . .] | 1.1.a.| ' J ^ ",
"u 1 1 4 J 4 1 4 J 3 u u J K L U 3 J u 4 U E I Y K [ e ( c.,XcXsXsXdXdXnXyXg 6 2 3 J U W J m 4 1 4 4 3 u J 3 3 4 J 5 3 u 1 3 4 1 ",
"L J J L ) ) L 3 L  . .| 1.6.1.@. .{ { L Y 4.+.<...X.X.` o.v.uXcXdXNXdXtX%.O.` i J ^ U W u J M 5 u 3 J K I J M 3 5 3 J J J I J 4 ",
"{ ] ) ] | @.@.K I 1.3.1.5.7.s.i.3.1.s.| +.t.s.7.5.3.p.u.j.h h >XsXfXsXj.%.%.X.X. .6.| E T  .X.] ] I ] 1.6.[ ] ) ' ] | | @.[ ' K ",
"@.[ ) _ | @.1.I J { @.2.3.1.1.5.#.3.i.2. .1.g.5.5.p...O.u.c.h r c.yXv.j.u.( _ ` | 6.<.<.T { ..' L L ) { @.) ) ^ )  .@.@.@.I L I ",
"2.......@.2.s...5 { @.7.5.1.3.5.3.3.5.7.{ | g.1.X.6 , O ( O.O.9 r O.9 h e o O 7 X. .| 4.E I [ ^ K L I  . .L ^ L K ] | | | ] I ) ",
"3.@.i.a...3.y.:.u ^ @.i.5.3.2.1.#.+.7.7.9.E :.u.X.O 8 8 8 8 8 9 9 9 9 9 8 8 w h g +.<.<.=.M  .L / / I ] ] ] Y ^ / P  . .| |  .) ",
"{ { 3...o.[ o._ 5 i { #.#.....1.@.@.7.7.6.] X.y.( 7 q 8 8 9 8 9 9 0 9 r 9 r l.h g ] <.:.a.^ 1 ^ P / L L Y Y L / / K U ] | +. .^ ",
"< 2 i 5 i i u 2 2 < p p L u 5 5 / / E Y p < 2 5 e $ $ O O o O 0 9 9 9 O X , # y 4 3 H ' ' i ; L 2 3 1 1 4 u 4 6 2 7 : 4 J J 3 2 ",
"u 1 u 6 { .._ p 6 u 6 u 3 u 6 > , M Y L u u u g 7             O 9 9 9 O @ @ + + ; : 7 6 , < > ; > : ; @ @ ; ; < > : ; : 4 < ; , ",
"{ _ _ Y 3.i.7.+._ X.....@.@.+._ / X.3.#.+.@.@.{ { X .   .   X O 0 0 w 8 @ @ @ @ @ J ' / ) L L J m 2 1 1 a 1 4 i u u 4 u Y L u i ",
"#.+._ p { 3.3.#.+.@.i.D.g.p.y.i.X.p.g.s.p.3.@. .{ + . . . . X O 9 w l.8 @ @ @ @ a 4 [ [ _ { ] { [ I J L Y J L _ _ Y L Y _ +.X.[ ",
"3.+._ p _ +.#.3.+.+.i.f.i.3.#.p.{ +.7.p.p.#.+.Q s + . . . .   O w k.v.O @ @ @ @ C.a p ` _ [ ) ) ' I I I T K J ) _ _ p p / { ..{ ",
"#.{ _ _ _ +.+.+.| 1.y.i.g.3.7.p.$._ #.p.#.j Q a $.t @ + + . X q l.k.l.8 @ + @ a C.j @ g j ` ) Y ^ ] ] [  .Y L L { _ L p p [ #...",
"X._ { @.L { 3.| | ..y.y.f.p.p.p.3._ %.%.k j a C.C.d s s t t + q v.k.v.o + d Q b.M.V.y k v.h g Y _ _ [ { X.[ / J ) [ { ) p @.{.i.",
"X.{ #.i._ ) { { ^ ' ..3.a.y.p.7.7.g g v.J.K.y C.B.d t s V.j a 6 k.k.l.f j C.b.d N.S.f k J.K.h g g { { X.o.' ' / L { { { ) { s.i.",
"i i g +.p 4 4 6 > 7 5 M ) L p j p < r k k l f V.B.A.d t b.M.Z.k k.k.h %.S.b.d n.N.N.f l L.K.k a a < < u 6 6 M 5 4 / L L L K ) [ ",
"2 < < u < ; ; ; $ , > ; > t : < j # o 0 o q y V.b.B.N.s b.m.M.k l.l.l.k b.b.n.n.n.S.l q q q o g s a + ; , , > 1 > 4 > ; > > 1 1 ",
"5 i u 6 u p i 2 7 7 M < < Y a s C.# # o l z.# M.B.b.N.N.N.M.V.k l.k.z.l V.n.A.n.n.N.f z.l q o j S.C.a @ , 2 2 5 5 3 < < < 6 u 1 ",
"/ [ _ p _ _ { g / / _ i a $.$.$.C.# o q G.F.y Z.m.m.m.M.N.M.Z.l l.k.l.Z.V.N.A.n.n.S.f M.L.w # j S.C.s @ a _ ^ / I J g p p _ { Y ",
"p L _ g Y _ X./ ^ ^ / p p Q j C.M.y q F.F.F.y M.B.m.B.m.N.m.M.z.l.l.l.k V.B.B.A.N.N.f z.L.F.# M.B.A.C.a a p ) L K K p 6 i / _ Y ",
"L L ) Q $.g { / ` X.L _ p a Q C.C.# l F.F.F.y M.m.b.B.n.m.N.Z.z.l.k.z.k V.B.B.B.n.S.f z.L.L.l M.S.B.Z.d < p ] ] I K 6 6 i _ L ) "
};
