/* XPM */
static char *c3BhY2UzKyUyODElMjkrJTI4MSUyOQ__[] = {
/* columns rows colors chars-per-pixel */
"64 64 241 2 ",
"   c #1A005C",
".  c #190B73",
"X  c #1C1374",
"o  c #260262",
"O  c #25056D",
"+  c #2D046D",
"@  c #250C6E",
"#  c #2B0A6C",
"$  c #31016E",
"%  c #320C6F",
"&  c #38036D",
"*  c #2C116F",
"=  c #331261",
"-  c #2C0672",
";  c #240D73",
":  c #2D0B73",
">  c #250D7C",
",  c #2B0C7D",
"<  c #270576",
"1  c #340572",
"2  c #3A0573",
"3  c #320D76",
"4  c #390B76",
"5  c #340E79",
"6  c #3B0D7A",
"7  c #251374",
"8  c #2C1175",
"9  c #26137C",
"0  c #2C137B",
"q  c #21197B",
"w  c #2C1A7C",
"e  c #331175",
"r  c #3B1376",
"t  c #35117A",
"y  c #3A147D",
"u  c #321A7E",
"i  c #3C1B7F",
"p  c #3C1A70",
"a  c #1E237E",
"s  c #32217F",
"d  c #420073",
"f  c #4A047A",
"g  c #430B7D",
"h  c #44107C",
"j  c #40267D",
"k  c #1B1993",
"l  c #181797",
"z  c #1E1089",
"x  c #2D0D82",
"c  c #2C0E8A",
"v  c #2B0989",
"b  c #330E82",
"n  c #3A0D84",
"m  c #330E88",
"M  c #3B0E89",
"N  c #261484",
"B  c #2E1284",
"V  c #2C1A84",
"C  c #24118C",
"Z  c #2C148C",
"A  c #2D1A8B",
"S  c #251C83",
"D  c #321485",
"F  c #3C1483",
"G  c #341A84",
"H  c #3D1A83",
"J  c #33158A",
"K  c #3A158A",
"L  c #35198B",
"P  c #3A1B8C",
"I  c #2E0D90",
"U  c #3B0F94",
"Y  c #370E92",
"T  c #271492",
"R  c #2D1594",
"E  c #261B95",
"W  c #2D1996",
"Q  c #2D149B",
"!  c #251B9D",
"~  c #2D1B9A",
"^  c #27129B",
"/  c #321695",
"(  c #3A1495",
")  c #321995",
"_  c #3A1C93",
"`  c #33169B",
"'  c #3C1699",
"]  c #331B9A",
"[  c #3B1C9D",
"{  c #173A8F",
"}  c #292285",
"|  c #332383",
" . c #3B228D",
".. c #362987",
"X. c #35368D",
"o. c #24239A",
"O. c #2C229B",
"+. c #282999",
"@. c #352393",
"#. c #3C2293",
"$. c #34219D",
"%. c #3A219D",
"&. c #322998",
"*. c #2A3693",
"=. c #373792",
"-. c #263288",
";. c #1E1AA4",
":. c #2C15A4",
">. c #2D1BA4",
",. c #2A16AC",
"<. c #241CAB",
"1. c #2D1CAA",
"2. c #2517A5",
"3. c #3215A3",
"4. c #3B15A6",
"5. c #331CA4",
"6. c #3A1CA4",
"7. c #331DAB",
"8. c #3B1CAB",
"9. c #3814AA",
"0. c #2C1DB3",
"q. c #2D1DBB",
"w. c #221EB0",
"e. c #3316B3",
"r. c #331EB4",
"t. c #3B1DB5",
"y. c #321DBA",
"u. c #3B1ABA",
"i. c #1B2CA9",
"p. c #1F3FAC",
"a. c #1E26B5",
"s. c #1A30BA",
"d. c #2D22A3",
"f. c #2D22AB",
"g. c #2525A9",
"h. c #3422A5",
"j. c #3B24A2",
"k. c #3421AB",
"l. c #3A22AC",
"z. c #3B29AD",
"x. c #342CA7",
"c. c #3936AD",
"v. c #2521B2",
"b. c #2E22B5",
"n. c #2B2CB3",
"m. c #2F25BA",
"M. c #2D2CBB",
"N. c #242AB9",
"B. c #3223B5",
"V. c #3A24B2",
"C. c #332BB5",
"Z. c #3C29B6",
"A. c #3325BA",
"S. c #3B23BA",
"D. c #352ABC",
"F. c #3A2ABD",
"G. c #2537B7",
"H. c #3734BA",
"J. c #2531A9",
"K. c #470985",
"L. c #411C85",
"P. c #431286",
"I. c #411D93",
"U. c #42169C",
"Y. c #521193",
"T. c #49248C",
"R. c #412393",
"E. c #462995",
"W. c #582A92",
"Q. c #493698",
"!. c #513985",
"~. c #461BB2",
"^. c #4224A3",
"/. c #4329A4",
"(. c #432AAC",
"). c #4121AD",
"_. c #4935AC",
"`. c #4634AC",
"'. c #5C39A8",
"]. c #422DB2",
"[. c #4124BC",
"{. c #4426B7",
"}. c #4533BB",
"|. c #463BB5",
" X c #1A4798",
".X c #314B9F",
"XX c #144DA6",
"oX c #2946B7",
"OX c #2059B0",
"+X c #3253BE",
"@X c #314CAA",
"#X c #2068B0",
"$X c #346AB6",
"%X c #534593",
"&X c #785A98",
"*X c #5951B7",
"=X c #4F43AE",
"-X c #7D44B5",
";X c #4E6FBC",
":X c #4B74BF",
">X c #7760A8",
",X c #361DC4",
"<X c #2610CA",
"1X c #2525C3",
"2X c #3424C2",
"3X c #3A24C3",
"4X c #3B2BC1",
"5X c #392AC8",
"6X c #3C32C5",
"7X c #383CC8",
"8X c #482BC7",
"9X c #4633C9",
"0X c #4131D3",
"qX c #1B4EC1",
"wX c #344ACA",
"eX c #2668D5",
"rX c #3472CE",
"tX c #166CD3",
"yX c #4144CF",
"uX c #4E4BCD",
"iX c #614ECC",
"pX c #4C69D3",
"aX c #5466D6",
"sX c #7265CD",
"dX c #7771D1",
"fX c #7154EC",
"gX c #914EC2",
"hX c #816FD3",
"jX c #9374FF",
"kX c #1784E3",
"lX c #4581D7",
"zX c #609DE0",
"xX c #5EA1F8",
"cX c #71B0F7",
"vX c #9687CD",
"bX c #9DA5FF",
"nX c #AAA6FC",
"mX c #ACB4FF",
"MX c #8E8CED",
"NX c #90CFFF",
"BX c #8ADAFF",
/* pixels */
": y 3 - L.L.5 3 5 3 b 5 5 t 3 t ; 5 4 4 5 5 5 4 3 3 3 e r 3 3 5 3 u 5 3 3 : $ 5 # 3 e 3 5 4 % : t 3 5 3 3 5 y 5 : t $ 4 6 : 6 3 ",
"3 t 3 3 y y 5 5 p 3 5 5 r o y b e 5 3 3 : e t 5 5 5 5 y y 5 3 t 3 3 : t t 3 t T.W.3 - t t 6 4 r e 3 5 t t y H t t r 3 5 5 3 t + ",
"3 3 3 t e 5 3 3 # % o 3 : P.3 : 3 5 u t 0 0 8 : 5 3 5 t t 5 5 e 3 3 3 3 5 3 t T.W.$ : u : : 5 % 3 : 3 e 3 t y 5 : t : 3 5 : t 8 ",
"t 3 3 5 3 3 5 5 3 p &X= b v 5 = 1 y H u e 3 3 5 3 3 3 5 5 3 3 5 : t t 3 3 3 3 6 r + t y : - w ..5 3 3 5 3 3 t : 3 3 3 t 3 3 5 u ",
"t 3 3 3 3 3 t 5 , p &X= n v 5 = 5 y u 0 4 4 g y 3 5 5 5 e 5 5 e 3 t 5 # 3 t 3 3 # 3 y 2 3 8 X.;Xy t 5 e 3 5 6 3 6 6 0 t 3 4 3 3 ",
"5 e 3 : 5 5 e 5 + % o 3 - H 5 1 t : : : 6 4 1 O 3 3 5 e 5 5 5 e L.t 3 5 t 5 3 6 8 e 2 2 g w -.;Xy 5 5 e 3 5 t e g # ; - 4 h 3 3 ",
"3 L.t : 5 t 5 5 p t b 5 e o y b 3 3 : 5 4 4 8 a 3 3 3 3 3 5 5 3 L.y 5 5 t 3 3 5 e 3 3 5 h : 7 =.t 3 3 5 3 3 e 5 3 ; w 7 3 6 6 H ",
": L.L.1 3 e 3 5 F y H 5 5 5 3 3 4 3 t 5 $ : X.$X3 3 5 3 3 e 5 3 + u 5 # 5 6 3 3 % 3 u t : 4 4 % t 5 3 5 5 3 5 3 8 u =...: 1 e E.",
"u : ; ; u : r % 5 3 3 5 5 5 3 3 0 6 5 0 t 4 4 G 3 3 t t 5 3 3 3 : t t 3 3 t t : e 3 3 3 3 5 3 3 3 3 % 3 5 t 5 3 1 } $X{ y f d S ",
"d y y 6 $ t 8 3 3 5 y t e 5 3 5 8 : t ; O 5 L.; 5 t 5 3 3 3 3 3 e t 3 : 3 t t 3 3 t t t 3 3 3 3 L.y 5 5 5 e 3 3 0 - } @ 8 w 2 O ",
"0 1 6 3 u t + y 3 t y y 3 3 5 e e s s # h e , t 5 3 3 3 e 5 5 3 t t e 3 t H i t 5 5 3 3 5 5 3 3 y r 3 3 3 e 5 5 7 g 2 g ; X 5 g ",
"g  X#X7 f 1 7 6 3 e y y 3 3 5 t   nXnXO e e O h : 3 3 t y y t 3 3 3 3 3 6 t t 3 t 3 : 3 y y t 3 3 : 3 5 5 t e 3 r 1 3 4 r 8 e 8 ",
"2 { #X. f 5 0 t 3 3 3 t 3 3 3 5 * X.%X: 4 8 H 2 t t 5 5 y y y t t t 3 3 : 3 3 5 5 5 3 t i F t 5 3 3 t t 5 5 3 3 5 @ T.e 4 2 : 8 ",
", + & O G u + t t 3 3 3 3 t e 5 8 @ 7 @ h 3 , 3 L.y 5 3 5 t t 3 3 3 6 4 t 5 t 6 : r H F t 5 5 t t 5 3 3 3 3 3 5 8 X W.: 8 % e t ",
"f L.H 5 1 e 8 % t 3 3 3 3 3 5 3 3 t y 0 e 1 3 3 H r 3 3 3 3 3 3 3 1 3 3 6 5 3 : 3 t y y 5 3 3 e 3 3 3 3 3 5 5 5 t ; 2 O t 6 u $ ",
"3 : ; 8 t # r 3 t 3 3 3 3 3 3 3 : P.2 O u h 1 0 : % 3 5 t 5 3 3 '.T.t 3 3 5 4 5 3 3 3 3 5 e 3 3 3 3 t 5 e 5 3 3 2 u 3 w 8 & G 3 ",
"2 e # 3 4 2 3 B 2 2 2 2 4 u : h 5 3 t 3 3 3 3 5 4 5 5 5 5 3 : - gX-X4 - D - 3 t r 5 4 2 & 4 t ; 3 t 3 t 3 3 3 5 3 $ 3 t u > ; t ",
"6 : u u 1 4 t B 5 { OX. f O N 1 3 5 y y u 6 t 3 5 3 , 5 , 5 5 3 2 5 - t y 4 F , ; 7 w G t 5 5 5 3 3 3 3 3 3 3 , .XX.0 1 2 6 6 t ",
", B E. .D F x B K XXrXS Y.B &.M , D F P K G D D G u 0 t D D D b D B G B , 6 K 5 F D B q z B P F D t D B D D D B @X*.N 5 n F F b ",
"J P 9 > P K x J < N +.v m v N m G J J D D D D D P P G D D J K J D 9 A B b K G J D F K K D D D B J J D D K G D D B D B G A V D D ",
"v K D P G > J I.P K.K.K A L b _ J A B B B B J J P L D B A J J J K J P B L B . S *.X ; n F , G #.K A B J J B B B b n K J V N Z J ",
"I.5 x P B B K - L D K x B D , K D J D J J J J B G B B D J J J J b b B > K L Z =XBX:Xa D K B B  .J J J B B J D L Z A M K.M K J B ",
"c b I., X V 9 P B A } > G D D G D D D D J D J B D D D K D J D J D J L J G D B @.zX.X; x _ J D D D D J D D D L _ S B D F F K D b ",
"B D D X sXMX} 0 M P.K b A _ B D D D B D D D D D c J J G J D D B G B B D b K L > q D P.P.c V G D D D D D B D P R.b J L B V N D K ",
"L D b . sXMX..0 A D B J J D B J _ b , c J D J c P _ P G D D J J x _ E.x L J x G / ` 0 u B [ B v D J K b b J D x D D J D , G J D ",
"Z c I.0 . q > L D B D L J D J B , J E.'.K D b K G J J D B D D D D L _ , A D x D J , J D * @ L _ D B B G J D D D J B 0 D L R.#.D ",
"P , t @.9 9 P b D D J P P G D D D D R.'.x D G D , D D D D D D D D x J , K J J G 0 H c x >X!.x c J D D P _ L D D t B D B 0 L G D ",
"R.P > D _ D P b D D G L L D D J P , x K < D F D D D D b D K G D K b D K D K J J u 0 K B %Xj F x K 5 D P P D D D D D P F b b F D ",
"L #.G > c x x ( B B D J B B B B D D D x P D J J D D D c B D B J K J c P K c B c c m L ; c > D L v B J B J J J B D c x D D L L c ",
"J B ) Z ( ^.( Z J J Z J / J J J B _ _ A /.) J L K / / J Z K K / C A c ( m R J J / 8.G 8 6.[ 0 / J L J J J K / J J J L L B J J D ",
"_ Z $.] c ` ( Z ] ) W ] ) ) ] ] ] ` ` Z %.] ] ) / ] ` ] / ` ] ] E $.V / ) ( ] $.] T ] [ Z R %.) ] ( / ] ` ) ) / ] %././.) R ` %.",
"/ ] E ~ [ Y R E ] ] / ] ] / W ] W W ] ] ) ] $.) W ` ] ` ` ` ] R x.|.~ ] ` ` W W L ) :.:.Q. .Q 5.] W W ` ] / W ] / W ] ] ` ] ` ) ",
"~ ( W O.W x.pXo.A %.R / 5./ W %.] ] W ] ] ] ` / ] ] W / ) ) ) ) c.c.~ W ] / ] W ) W R ] %.] ] W E [ T O.W O.aXk A ) R 5.5.] ` 5.",
"~ ( R W ( ~ c.E ] ] R ] ] ) ] j.] ] / / W ] ] / W W W W ] [ ] ] E h.R ) ] ] ] ] [ ) E $.[ U / O.W ' ) ~ [ ~ c.O.] %.h.] / / ) R ",
"W [ [ R [ ] E W ] R ` ] _ A L _ ] ] W / ] / ] W ] ] ] ] ] ] ) / C ] ) ) ` / ~ ~ W ` / R R $.] / W ( [ W [ ( E $./ T / ) L @._ A ",
"R ^.(.R [ ^.] ) ` ` %.A ) ] ` R ` ` ] ] / ] ] / ] W W / / ] ` ] ~ $.] / ( ) W W ~ [ U.( T $.] U.W / [ R [ W C ] l.R / _ ) ) R ) ",
"W W j.W T /.] ] ` ] %.C ` ] 5.7.) ] / ] ] W / ] j.%.] ] / ] / ` / ] / / ] $.] ] ' W ) h.W / c ] W R ] W ] W %.) 6.W #.) W ` 5.l.",
"$.k ~ ] E h.( ~ ) W / / l.T ) / ) ) / ] ] / / ] j.h.] ] ) ] ] ] / / / W %.j.] ] W ] / W E |.] / W E W W ~ W (.~ T L ] Z 5.8.I Z ",
"[ E / [ E ] K ~ ) R ] ` j.L %Xs W W ] W W / W ] W W T W ` j.^./.] W ] ~ ] j.) ] o.U.U._ o.uXc.U ` E ] ( O.W ^.~ 5.) ] Z 5.6.> ..",
"M h.( ' E ] ( O.] ` 5.) L Q.vX%XR / / ] ] / / ] [ $.] / / R W R W W $.W ) ] R ] W R ] $.k J.C ] ' ~ [ Y O.W U ] ` / @./ ` B ..vX",
"/ ` ' [ / W / ] W ] W ] ) @.hXQ.W W ` ] ~ ~ ] $.pX+.E [ [ $.] R R ] ] W ) %.j.) ) ) ` 5.W Q ] W / ) W W ) ) W ] W ) ] ~ W ) $.%.",
"i.g.~ / 5.7.5.5.h.5.5.5.5.Z _.L 5.3.5.5.5.5.5.h.J.! 5.6.T ~ h.5.` h.5.W 5.l.j.5.] h.h.` 5.5.k.h.] 5.5.5.h.5.] 5.` 5.5.5.] 5.] h.",
"4.8.t.B.B.1.7.4.h.7.7.7.V.V.Q h.5.7.8.7.7.7.7.7.>.5.V.7.5.k.k.B.7.7.7.7.7.k.k.7.5.7.k.5.7.7.5.k.7.7.7.5.k.7.7.7.k.k.7.7.B.7.7.7.",
":.5.8.7.1.7.7.8.>.7.7.:.1.Z.2.S.7.r.7.7.7.7.7.7.t.8.3.1.B.B.2.7.k.7.1.7.B.k.7.7.l.7.>.k.V.1.:.k.1.1.1.1.k.7.>.1.7.1.7.7.7.k.7.7.",
"tXOXg.3.4.l.k.d.z.z.h.C.>.B.1.1.5.7.7.5.7.5.5.k.7.l.k.>.k.7.3.).k.1.1.h.k.1.1.k.{.l.5.7.V.7.1.7.k.1.k.k.z.k.1.k.h.7.d.k.7.h.k.k.",
"eXwXH.6.4.l.h.<.Z.z.h.|.l.7.B.7.h.5.5.7.5.8.5.h.] z.c.h.5.).8.8.k.h.1.k.h.h.5.h.Z.l.l.5.:.k.V.1.h.5.>.h.z.h.>.h.k.7.k.5.1.>.5.d.",
"^ :.3.5.>.>.5.8.5.:.Q l.h.5.5.5.7.7.5.7.7.7.k.7.5.h.k.! 5.8.:.>.5.7.k.7.7.7.7.7.l.5.(.l.~ 5.l.3.h.5.>.h.l.l.1.5.k.7.7.k.7.7.7.7.",
"0.7.7.7.f.B.5.5.7.V.k.>.5.l.1.5.7.7.7.7.7.7.7.5.8.5.f.k.5.8.7.H.1.7.8.7.1.7.7.7.l.I ].iX(.5.k.7.k.7.7.l.Z.l.5.7.7.5.7.8.V.V.7.1.",
"u.h.%.5.5.$.l.e.5.k.,.1.>.$.k.k.&.1.7.$.$.f.r.6.5.7.>.7.l.7.k.}.h.<.5.8.kXoX4.f.1.k.~ j.iX].^ Z.7.7.5.k.l.h.1.k.>.7.k.5.Z.}.5.5.",
"k.E >.y.q.d.o.h.h.V.t.Z.5.~ ~ k.>.S.e.3.k.B.,.r.l.k.5.7.k.5.5.k.7.f.8.l.eXn.4.1.V.5.k.~ j.`.`.v 7.8.h.5.l.5.>.7.t.V.7.:.7.7.>.l.",
"f.h.k.<.2.j.d.b.0.>.] T Z.y.V.~ 7.{.8.t.>.d.2.0.7.7.7.>.k.7.5.5.5.7.1.Q s.>.4.l.l.^ V.h.~ _.sX*X5.7.5.5.5.7.7.7.7.3.5.5.7.h.5.}.",
"r.9.` j.l.4.3.t.7.5.z.5.7.:.7.7.5._.[ >.O.*X=Xo.>.k.7.5.7.V.7.5.8.l.h.1.1.8.Z.}.B.:.V.k.>.~ =XsX2.f.7.:.7.l.7.k.7.7.l.7.k.1.>.k.",
"d.).7.C.b.).).] x.:.,.F.5.h.:.3XB.T j.B.l bXmXl 7.Z.Z.r.7.B.7.B.:.1.g.f.9.8.f.7.5.B.V.,.A.:.5.l.1.B.k.7.t.k.f.k.k.1.l.B.7.B.2.1.",
"n.A.g.wXp.<.S.C.y.k.=XO.F.2XA.1.m.b.B.6Xv.n.H.2XS.F.F.B.k.B.B.A.S.M.C.D.~.A.A.C.B.7.A.r.4X3X3X0.f.C.r.A.A.B.B.F.M.f.B.1.7.F.F.C.",
"1Xq.H.NXcXH.,X1X,X9XhX&.5X<X5Xj.m.5X,X0.M.4Xm.q.B.A.A.B.A.A.A.A.S.N.r.0.t.a.q.S.4Xb.C.B.A.0.2X2XB.B.b.A.F.A.M.7XyXM.D.A.y.F.B.y.",
"m.3Xi.lXOXl 8Xy.x.d.C.f.d.F.q.2XC.q.2XZ.d.b.F.S.m.A.A.m.F.B.q.B.u.N.u.r.8Xs.B.S.q.2XA.2.C.C.A.A.F.D.B.2X2Xv.N.7XwXN.m.A.A.A.y.A.",
"A.A.A.0.m.A.A.m.3X<.F.D.<.9XA.m.A.m.A.A.A.A.A.A.v.A.B.S.B.m.m.2Xf.,X,XM.<.,X0Xv.m.B.A.A.2XA.B.B.}.F.B.m.A.3XA.q.B.B.A.m.m.A.A.A.",
"m.B.A.m.y.A.B.A.4Xb.M.2X2Xr.v.D.A.B.B.m.A.A.A.B.4Xb.0.r.A.N.2XyXrXv.q.F.n.m.e.[.A.A.B.B.b.A.A.A.C.B.B.B.A.A.A.r.q.B.A.A.B.B.y.m.",
"B.A.4XA.A.A.A.A.<.D.M.;.A.r.4Xm.A.A.A.B.A.B.A.A.m.A.A.A.A.A.A.7X7Xg.{.t.i.pXoXk.A.A.B.A.A.A.A.B.f.b.A.D.A.A.C.C.A.B.A.4X4XA.b.B.",
"A.4X4XD.A.B.B.A.3XC.m.m.4Xr.r.b.A.A.A.B.y.m.A.A.0.4X6XA.A.D.v.w.y.3.~.9.eXBXxXi.A.A.A.2X4X4XA.v.A.A.A.A.B.A.B.C.A.B.A.4X4XA.B.A.",
"A.A.A.A.b.b.B.B.S.<.F.A.7.8X8X[.B.B.A.m.b.q.m.B.m.5X4Xb.B.4XA.m.2Xn.F.9Xw.+XoX7.A.A.A.A.4XD.A.b.A.A.m.y.B.C.B.b.A.q.b.D.D.q.b.A.",
"m.B.A.B.B.A.A.4X9XA.A.<.[.jXfX:.A.A.A.4XB.A.B.A.B.A.m.B.A.B.A.4Xm.N.a.0Xr.>.k.S.A.A.m.B.A.A.A.B.A.A.B.A.F.F.B.B.A.B.B.A.A.m.B.A.",
"q.m.A.A.A.A.D.A.F.B.F.B.B.[.S.r.B.2XD.4XA.A.A.A.q.B.B.A.D.b.0.A.B.5Xq.N.D.S.3Xv.A.A.A.B.m.B.A.A.A.B.B.A.F.F.D.A.A.A.A.A.A.A.A.A.",
"B.A.A.A.A.A.A.b.b.C.n.b.F.<.B.D.m.A.D.4XA.A.B.B.B.D.D.b.A.S.A.A.1.[.,Xg.n.y.2XM.m.A.A.A.A.B.A.A.A.B.B.b.B.A.A.A.A.A.A.A.A.A.A.B."
};
