/* XPM */
static char *a53b33409fba491494b8e864e4541a646kRHvf0oDP6Bt5vR[] = {
/* columns rows colors chars-per-pixel */
"64 64 140 2 ",
"   c #15182E",
".  c #14182E",
"X  c #14192F",
"o  c #161A2F",
"O  c #232936",
"+  c #15192E",
"@  c #15192F",
"#  c #151A2F",
"$  c #151B30",
"%  c #161B31",
"&  c #161C31",
"*  c #14192E",
"=  c #1A2531",
"-  c #161D33",
";  c #151B31",
":  c #161D2F",
">  c #151A30",
",  c #13182E",
"<  c #201A31",
"1  c #1A1930",
"2  c #211B2F",
"3  c #1F1C30",
"4  c #171E30",
"5  c #1A2331",
"6  c #16182E",
"7  c #15172E",
"8  c #632B35",
"9  c #955444",
"0  c #372532",
"q  c #13172E",
"w  c #14182F",
"e  c #221B30",
"r  c #6E3738",
"t  c #5B2834",
"y  c #14172E",
"u  c #18192F",
"i  c #161A30",
"p  c #16192F",
"a  c #171A2E",
"s  c #14172D",
"d  c #1C1E2F",
"f  c #161C32",
"g  c #1C263A",
"h  c #1A2136",
"j  c #28394B",
"k  c #1A1B30",
"l  c #1D1D32",
"z  c #181C30",
"x  c #161D32",
"c  c #2C2338",
"v  c #3A273D",
"b  c #1E2434",
"n  c #171C30",
"m  c #171A2F",
"M  c #1A1B31",
"N  c #1B1D2F",
"B  c #171B2E",
"V  c #16192E",
"C  c #15182F",
"Z  c #251C35",
"A  c #281D36",
"S  c #1B1E2F",
"D  c #161A2E",
"F  c #2C1E37",
"G  c #181B2F",
"H  c #16182F",
"J  c #1B2032",
"K  c #1C2233",
"L  c #171E33",
"P  c #221A32",
"I  c #171D33",
"U  c #182031",
"Y  c #151A2E",
"T  c #191B2F",
"R  c #192130",
"E  c #181B2E",
"W  c #1E202F",
"Q  c #1A1C2F",
"!  c #232D40",
"~  c #314253",
"^  c #171C31",
"/  c #2A1E37",
"(  c #1A1A30",
")  c #243245",
"_  c #212E41",
"`  c #13172D",
"'  c #1D2539",
"]  c #273346",
"[  c #39223D",
"{  c #1E1B32",
"}  c #192035",
"|  c #181E33",
" . c #191C2F",
".. c #151930",
"X. c #302239",
"o. c #4A2B43",
"O. c #2C2137",
"+. c #442941",
"@. c #191A30",
"#. c #17192F",
"$. c #1C1A31",
"%. c #171B31",
"&. c #211B33",
"*. c #412440",
"=. c #171B30",
"-. c #1A1D2F",
";. c #191930",
":. c #1C2032",
">. c #1A1F31",
",. c #19192F",
"<. c #211A31",
"1. c #171E34",
"2. c #222A3E",
"3. c #171D32",
"4. c #171B2F",
"5. c #191F36",
"6. c #1C283E",
"7. c #334153",
"8. c #1A1E34",
"9. c #161B30",
"0. c #181D33",
"q. c #1C2137",
"w. c #222D41",
"e. c #3A223D",
"r. c #181D30",
"t. c #161B2F",
"y. c #1C2132",
"u. c #17182F",
"i. c #1D1930",
"p. c #1B1930",
"a. c #1E1D32",
"s. c #2A2237",
"d. c #1E1A31",
"f. c #1F1A31",
"g. c #241F35",
"h. c #37263C",
"j. c #1C1930",
"k. c #151B2F",
"l. c #1B2631",
"z. c white",
/* pixels */
"  . . . . . . . . . . . . . . . . . . . . . . X . . . . . . . . . . . . o O + . . . . . . . . . . . . . . . . . . . . . . . . . ",
"  . . . . . @ . . . . . . . . . . # @ . . . . . . . . . . . . . . . . . . + @   . . . . . . . . . . . X X . . . . X . . . . . . ",
"$ . . . . . @ . . . . . X . . .   % $ . . . . . . . . . . . . . . . . . . . X . X & . . .   . . . . X X . . . * = # . . . . . . ",
"- . . . . . . . . . . . . . . . . . . . . . . . . . .     . . . . X X . . . . X X ; . . .   . . . . . . . . . . : * . . . . . . ",
". . . . . . . . . . . X > . . . . . # . . . . . . . . .   .   . . . . . . . . . . . . . . . . . . . . . . X X . . . . , , . . . ",
". . . . . X . . . . . . X . . * .   . . . . . . . . . . . . < 1 . . . . . . . . . . . . . . . . . . . . . . X . . .   2 3   X . ",
". . X . . . . . . . . . . . 4 5 .   . . . . . . . . . . . . 6   . . . . . . . . . . . . . . . . . X X . . . . . . . 7 8 9 0 q . ",
". . . . . . . . . . . . . . * + . . . . . . @ . X . . . . . . . . . . . . . . . . . . . . X X . . . . . . . . . . . w e r t y . ",
". . . . . . . . . @ @ X . . . . . . . . . . @ . > . . . @   . . . . . . . . . . X . . . . ; & . . . . . . . . . . . . , y u . . ",
". . . . . . . . . . . X . . . . . . i @ . . . . . . . & > . . . . . @ @ X X . . i .   . . . . . . . . . . . . . . . . X . X . . ",
". . . . . . . . . . . X . . . . . @ @ . . . . . . . . > X . . . . . + @ . . . . + .   . . . . . . @ @ . . . . . . . > - . . . . ",
". % i .   . . X . . . . . . . . . . . . @ . X X . @ + . . . . . . . p . . . . . . . @ X . a . . . . . . . . . . . . . X . . . . ",
". @ . . . . @ . . . . . . . . . . . . . @ . . . . @ . . . . X   . . s . . . . . . . . . + d . > > . . . . . o . . . . . . . . . ",
". . . f . . @ . . . + o . .   . X - . . . i . . . . . .   . . . . & g X . . . . . . . . . . @ . . . . . . . . . . . . . . X . . ",
". . . % . . . . . . . . . . . . . # . . . . . . . . . . * # . . . h j > . . . .   . . . . . . . . k l . p   . . . . . . . . . . ",
". z @ . @ . p . . . . . X . . . . @ . . . . . . . . . w > x . . . . X . . > . . @ > @ . . . . . . c v @   . . . . . . . X . . . ",
". b n . . . . . . . . . . . . . . @ . . . . . . @ . . . . . . . . . . . X - . . . @ X . . . . . . m M . . . . . . . . . N B . . ",
". . . . . . . . . . . , , . @ @ . . . . . . . V . . . . . . . . . . . . . . @ + . . . . . @ . . . . . .   C . . . X C . + + . . ",
". . . . . . . . . . , Z A , . . . . . . . . . S D . . . . . . . . X . . . . @ @ . . . . . @ @ . . . . . . @ @ . . X . . . . w . ",
". . @ p . . . @ @ . , A F , . . . . . . . . . . . . . o . . . @ . . . . X . . . . . . . . . . . . . . . . . . . . . . . . . . . ",
". .   . . . . . . . . , , . . . . . . . . . . . . . . . . . G N . . . . . . . . . . . . . . . . . . . . . . . . .   . . . . . . ",
". . . . . . . . . . @ @ X . . i @ p . . . . . .   H . . . . . . . . . . . . . . . w . . @ @ . . .   . . . @ . w . J K y . @ L . ",
". . . . . @ . X . . @ . . . . . @ . . . i . X X u P . . . . . . . . . . . . G m . . . . . X . . .   . . @ I . . X # o . . . > . ",
". . . . X @ . . .   . . @ i . . . . . . . . w C     . . . . . . . . . . w X a a . . . . . . . . . . . . . . . . . . . . . . . . ",
". N D . . . . . . w . .   . . . @ . . . . . w . . . . . . . . . . . . . . . . . . . . . @ @ . . . . . . . . . . . . . @ . .   . ",
". + @ . . . . . . . . . . . . . @ . . . . . . . . . > & . . X .     . . f @ @ . * U Y . ; & . . . . . . . . . . . . . @ @ . . . ",
". . . . . . . . @ X & . . . T m . . . . . . . . . . X > . . . . . . . + % . . . . R Y . . . . X @ @ . . E W . . . . . @ . . . . ",
". . . . . w X . . X ; . . . G o . . . . . . . , . . . . . . . X @ . . . . . . # @ y . . . . . . . . . . V Q .   . . ! ~ ^ . . . ",
". . . . . . . . . . . . . . . . . . * . . .   / ( . . . . . . . @ . . . . . s ) _ ` . . . . . . . . . . . . . . . . ' ] > . . . ",
". . . . . . . . . . . . i . . w . . . . . . p [ { , . . . . . . . . . . . . . } | . .   . . . . . . . . . . . . . . . s . . . . ",
". .   . f X . p . . . . . . . X . . . . . . . . . . . . . . . . . . . . . . . @ . . . . Q T . . . . . . . . .   . . . . . . V a ",
". . . . % X . . h & . . . . . . . @ . . . . . . . . . . . . . . . . . . . . . . . . . . + + . . . . . . . . . . % > . . . . G  .",
". . . . . . . X j g s . . . . . . @ . . . . . . . . . . .   u , . . . . . . . . . . . . . . . . X . . . . . . . ; ... . . . . . ",
". . . . . . . . > X . . . . . . . . . . . . . . . . . . . X.o.k . . . .  .. . . . . . . . . . . . . . . . . . .   . . . . . . . ",
". @ @ . . . . . . . . D N . . . . . . . . . . . . . . . . O.+.@.. X .   Q . . w @ @ . . . . . . . . . . #.$.. . . . . .   . . . ",
". . . . . . . . @ . . + D . . . . . . . . d + . > %.. . . . p .   . . . . . . . . . . . . + + . . . . . &.*.#.. . . . . . . . . ",
". . . . . . . . @ . . . . X . . z =.. . . V . . . . . . . . . . . . . . . . . . . . . . . B -.. . . . . C ;.. . . . . . . . . . ",
". . . . . . . . . . .   . . . . :.>.. . . . . . . . . . . . . . . . . . . . . f > . . . . . . . . . . . . . . . . . . . . . . . ",
". . . d + . . . . . .   + . . . . . . . . . . . X . . . . . @ . . . @ . . . . X . . . . . . . . . . . . . . . . . . . @ . . . . ",
". . . a . . . . . . . @ o . . . . @ L . . X . . . . X . . . . . . . w . . . . . . . . . . . . . . . . . . . @ . . . . X . . > X ",
". . . . . . . @ . . . . . . . . . . @ . . . . . . . . . . . . . . . . . . . . . . . . . . . . . . . . . . . @ . . . . . . . f # ",
". . .   . . . I @ . . . . . . . . .   . . . . . . . . . . @ . . . . . > f . . . . . . . . H H . . . . . . . .   . . . . . . . . ",
". . . . . . @ .   .   ,.  . X . . . . . . . . . . . . @ @ L .   . . . @ %.  . . @ . . . . . . . I X . . . . . . . . . . . . . . ",
"  X w . . . @ . . .   <.6 . . . . X .   . . . . . . . C . . . . . . . .   . . . ` . . . . . . . X . . . @ & . . . . . . . . . . ",
". . . . . . . . . . . . . .   . . . . . . o . . . . . . . . . . . . . . . . @ 1.2.% . . . . @ . . . . . X ; . . . 3.X . . . . . ",
". .  .G . . . . w . . . . . . . . . . . . . . . + 4.  . . . . . . . . . . f 5.6.7.8.. . . . X . . . . . . . . . . 9.. . . . . . ",
". . V + . . . . . . . . . . . X > . . . .   . . + N . . . . w . . . . . . X . . ` ; > @ . . . . . . . . .     . . . . . . . . . ",
". . . . . . . .   . . . . . . > x . . .   . . . . . . .   . . . . . . . . . . . . $ @ . . . . . . . . . . X X . . . . . . . . . ",
". . . . . . . .   . . . . . . . . . . . . . . . . . . .   . . . @ @ . . . . . . . . . . . . . . . . . . . . . . . . . . . . C . ",
". . . . . . . . m G . . . . .   . . . . . . . X . . . . . . . . . . . . . . . . % %.. . .     . . . . . . . . . . . . . . . . . ",
". . . . . . C . D T . . . . . . . . . . . . . . . . . . . . . . X % . . . . . . 0.q.. . X . . . . # * . . . . @ @ . . . . . Q + ",
"X . w . . . * * . @ X .     . . . . X . . . . . . . . X @ . . . f w.... . . . . . . . . . . . . . I # . . . . . . . . . . . T   ",
". . . . p e.{ . . . X . X . . . . . . . X @ . . . . . @ L . . . . ... . . . . . . . . . . . . . . . . . . . . . . . . . . . . . ",
"C . . .   / ( . . . . . . . . @ . . . . L @ . . . . . . . . . . . . . . . X . . . .   . . . .   . . . . . . . . . . . . . . . . ",
". . . . . , . . . . . . . . . @ . . . . . . . . . . . . . . . . . . . . . @ @ @ @ . . . . @ @   . . . . . . @ . . . . . . . . @ ",
". . . . . . . . . . . X . @ . . . .   . . . .   r.t.. . . . . . . . . % @ . . . . . . . . X @ . . . @ . . X > . . . X . . . . @ ",
". X . . . . . . .   . . . . . . . .   . . . . . y.r.. . . . . . . . . - @ . . . . . . . . . . . . . +   . . . . . w . . . . . . ",
". . . . . . . . . . . . . . . .   . . . .   . . . . . . . . . . . . . . . . . X . . . . . . . . . . . . . . . . . . . u.i.. . . ",
". . . . . . . .   . . . . . X . . . , . . . . . . . . . . . . . . . . . . . . . . . . . X . . . . . . . . . . . . . . u.p.w @ . ",
". % ;   . . X 1 H X . . . . X . . a.s.+ . . X X .   . . . .     d.  . . . . . . . . . . . . . . . * . . . . . . . . . X . . . . ",
"  @ X . . . . f.u X . . . . . . , g.h.p . . . . X . . . .       j.  . . . . . . . .   # $ . . . k.l.X . . . . X X . . . . . .   ",
"  C . . . . . . . . . . . . . X X . @ . . . . . . . . X . . . X . . . . . . . @ X . . > ; . . . . # . . . . . . . $ @ . . . . . ",
". X . . . . . . . . . . X X . . . . . . . . X . .   . . . . . @ . . . . . . . @ . . . . . . . . . X . . . X . . . ; # . . . . . ",
". . . . X . . . . . . . . . p . . .   . . @ @ . . . . X 1.. . . . . . . . . . . . . . . . . . . . . . . . . . . . . . . . . . . "
};
