/* XPM */
static char *_c72f1107e8e44eca27539c9aa9b2127622icGfypvNw7QJT[] = {
/* columns rows colors chars-per-pixel */
"64 64 210 2 ",
"   c #4C1D13",
".  c #54240E",
"X  c #58240F",
"o  c #4E261C",
"O  c #4F291E",
"+  c #542516",
"@  c #592413",
"#  c #552817",
"$  c #5A2915",
"%  c #54261B",
"&  c #582719",
"*  c #55291C",
"=  c #592B1D",
"-  c #5E311E",
";  c #622C15",
":  c #692D13",
">  c #632C1B",
",  c #623017",
"<  c #65341C",
"1  c #6B331B",
"2  c #67391F",
"3  c #693B1F",
"4  c #71351B",
"5  c #70381D",
"6  c #793C1E",
"7  c #4E2525",
"8  c #462C27",
"9  c #4C2A27",
"0  c #4F2729",
"q  c #472B2A",
"w  c #4C2B2A",
"e  c #532624",
"r  c #5A2725",
"t  c #562A21",
"y  c #5A2B23",
"u  c #50272A",
"i  c #522A2B",
"p  c #5C2C29",
"a  c #573126",
"s  c #5D3226",
"d  c #56322B",
"f  c #5C332C",
"g  c #522B30",
"h  c #573130",
"j  c #5C3331",
"k  c #5C3933",
"l  c #632F21",
"z  c #643525",
"x  c #6B3624",
"c  c #653825",
"v  c #6B3A24",
"b  c #64352B",
"n  c #69372A",
"m  c #66392B",
"M  c #6B3B2C",
"N  c #723727",
"B  c #733B25",
"V  c #7A3E23",
"C  c #713628",
"Z  c #723E2C",
"A  c #7A3F2D",
"S  c #623433",
"D  c #693735",
"F  c #653B33",
"G  c #6C3D33",
"H  c #673A3D",
"J  c #6B3D39",
"K  c #713F33",
"L  c #7A3F30",
"P  c #723F3B",
"I  c #6D412D",
"U  c #764026",
"Y  c #7B4126",
"T  c #7F4927",
"R  c #74432D",
"E  c #7B432C",
"W  c #7C4A2E",
"Q  c #674134",
"!  c #6A4031",
"~  c #6C4131",
"^  c #6E4031",
"/  c #6E4030",
"(  c #6D4231",
")  c #6E4332",
"_  c #6C4033",
"`  c #6F4431",
"'  c #6D4432",
"]  c #6E4533",
"[  c #6F4632",
"{  c #684034",
"}  c #694135",
"|  c #6A4034",
" . c #684036",
".. c #6B4037",
"X. c #6C4236",
"o. c #6E4235",
"O. c #6E4535",
"+. c #6D4134",
"@. c #6E4139",
"#. c #734331",
"$. c #714332",
"%. c #754332",
"&. c #714431",
"*. c #724530",
"=. c #724532",
"-. c #734633",
";. c #714633",
":. c #744430",
">. c #754433",
",. c #734434",
"<. c #714635",
"1. c #764534",
"2. c #754537",
"3. c #754536",
"4. c #734334",
"5. c #7D4530",
"6. c #784534",
"7. c #7B4533",
"8. c #734A36",
"9. c #764935",
"0. c #7C4A34",
"q. c #754738",
"w. c #74433A",
"e. c #7A4639",
"r. c #77493B",
"t. c #7D4B3A",
"y. c #7F5034",
"u. c #7E513C",
"i. c #6E4042",
"p. c #744442",
"a. c #724A40",
"s. c #7F5141",
"d. c #834424",
"f. c #874827",
"g. c #8E4D27",
"h. c #81452D",
"j. c #84462F",
"k. c #81462B",
"l. c #834A2F",
"z. c #844A2E",
"x. c #8C4E2D",
"c. c #914E2D",
"v. c #8D512E",
"b. c #93512D",
"n. c #814532",
"m. c #834933",
"M. c #854931",
"N. c #864832",
"B. c #844C33",
"V. c #854934",
"C. c #844C34",
"Z. c #8A4933",
"A. c #884A35",
"S. c #8B4D34",
"D. c #8E4D37",
"F. c #8B4E33",
"G. c #824739",
"H. c #834D3A",
"J. c #8F4E38",
"K. c #8B4E3A",
"L. c #914F33",
"P. c #914E3E",
"I. c #855234",
"U. c #8D5137",
"Y. c #8C5234",
"T. c #8A5A35",
"R. c #85523C",
"E. c #8E523A",
"W. c #8E513C",
"Q. c #8F553D",
"!. c #8B533B",
"~. c #86583E",
"^. c #8C593D",
"/. c #925334",
"(. c #995733",
"). c #955A36",
"_. c #9B5A35",
"`. c #91533E",
"'. c #92543B",
"]. c #935A3C",
"[. c #9B5D3C",
"{. c #A25F3C",
"}. c #966137",
"|. c #95623A",
" X c #9C623C",
".X c #9C693D",
"XX c #A3623E",
"oX c #A8643F",
"OX c #854F41",
"+X c #894F41",
"@X c #855443",
"#X c #8A5542",
"$X c #875943",
"%X c #8B5943",
"&X c #865648",
"*X c #8A5649",
"=X c #875B4C",
"-X c #8A5949",
";X c #905441",
":X c #935B42",
">X c #9C5E41",
",X c #925E48",
"<X c #926047",
"1X c #9C6143",
"2X c #9F684A",
"3X c #A26443",
"4X c #A86441",
"5X c #A56844",
"6X c #A96946",
"7X c #A76B49",
/* pixels */
"q q q q w w i w 9 w w w 8 8 8 8 w h w 9 7 e i e e e e u 7 i g w i i 0 i g u u i 0 y 9 9 7 g w g 7 7 w i w 7 0 0 0 0 i i 7 i e i ",
"k k j j f j f f f f f j k d d k 8 d k k f f b b b j b j f k h w d f j j h j j j f f f f k g g k j f f f f j j j j j j f j f S f ",
"/ / G M M K Z n M M M M I / I ! O s Q } ! / / M M G G G X.Q k O Q Q G X.J X.J M ! ! ! O.J a a } ! ! G G ! } ! X. .} J Q ! / G G ",
"R R 0.E L 5.5.5.5.E E E 5.E R U = m [ ` =.=.:.R R R $.$.8.[ c = 8.O.} ` ` o.,.=.I I ,.8.` s s <.,.R =.` ` O./ O...O.I ` =.I R R ",
"Y l.U.U.F.F.J.J.Z.N.j.N.B.B.h.Y x I ` =.=.R E Z R :.:.%.=.,.G s / I c v m I M I M R R :.` M M 3.=.R R M R I I M I M v I I R R R ",
"Y B.Q.`.E.E.K.;XZ.N.N.N.m.m.5.5.m $.,.,.%.3.6.5.%.6.4.4.,.q.o.M ! G m c v M v M Z 4.3.=.3.I G 4.:.=.R K / M I M c c c M R R *.R ",
"R 6.t.t.t.t.t.H.e.e.e.e.e.6.4.$.z G e.w.$.w.6.P w.p.w.P p.w...f @.@.J J J K %.$.w.K P r.w.G G w.q.e.K K K J w.J G M D / $.4.3.=.",
"o.O.=.$.w.q.w.o.J P w.w.w.w.$.P e S w.p.P P P P P w.P P p.p.S i i.i.J w.w.w.w.P p.P P p.P p p P w.w.P P w.@.w.i.p.w.J w.w.w.w.o.",
"k m Q F F J F F D J J D J J F G y b D J G G D J D J J H D H S i H H H S ! M F $.J K D J D b l G K G G G G F D F S X.F F S J m J ",
"- - * % t a f p t t t t = = = * + = = y = y r l p y y y y p t O i p y t = # * = = r r r y + + y & & & = = y y * y s * s y s = = ",
"< c c z c b y + b n n x x v x x < < < < < < c z m c z c c c s c % f M c 2 3 < < x n n n M 2 < 3 1 < 3 x x c c c b # + I z c z z ",
"R.~.%X#X#X$X%.< @X#X#XW.!.Q.].Y.|.^.T.^.Q.~.~.~.*XI.u.@X$X$X~.$X= 8.~.y.T.T.T.I.I.R.H.K.~.Y.T.T.T.Q.^.T.I.R.~.R.$Xc c %X~.R.R.$X",
"Y.Y.l.Y 5.K.5.x ;X:X:X].>X>X3X{.}.}. X).T.I.I.I.W R R W y.W W I.+ R ^.^.}..X}.T.E.Q.K.#X>X1X}..X X X|.).].].^.%X$X> < R.:.R 0.I.",
"`.^.l.B Y I.H.B K.E.].).).[.XXXXXX5X5X1X).Y.I.Y.Y Y T z.M.M.I.I.X R ~.Y.}..X_.v.F.J.D.P.1X3X.XXXXXXX}.).).'.].:X].< 1 K.5.R H.#X",
"F.!.B.U E K.E < I.Q.].].)._.[._.(.).[.).'.Y.U.F.E m.m.H.H.I.K.K.1 7.W.U.}.5X_.v./.P.P.;X>X>X{._.{.[.[.).).).`.:XK.x x K.L L n.#X",
"K.!.C.Y E !.C.v K.!.Q.U.v.v./.b.b.c.L.L.L./.E.W.J.`.W.E.K.Q.E.!.C G.K.'. X5X[.b.L.`.L.Z.P./.c.g.c.c.c.L.L.U.'.P.;XA A P.G.L G.K.",
"Y.I.l.h.C.Q.m.5 K.C.E.U.Y.'.U.Y././././././.U.U.U.D.D.Q.'.U.F.V.C G.!.Y.'.3X[.v.Y./.Y.Y.L./.F.U.L.b././.U.Y.F./.`.V Y Q.K.E N.!.",
"!.Q.Y.l.h.C.n.B K.K.!.F.l.T T m.x.z.z.Z.D.U.B.k.Y.M.k.k.l.M.!.W.Z 6.!.`.].`.).v.v.v.v.v.F.F.Y.Y.F.F.Y.F.Y.F.Y.F.M.Y Y I.m.W I.K.",
"!.!.I.5.n.K.n.x K.#X!.V.E Y E m.V.m.B.K.`.#XA.h.B.m.E Z E m.!.#Xz 5.~.:X].].T.Y.v.v.v.v.Y.Y.Y.Y.!.E.Y.Y.!.!.!.!.!.E E R.H.m.I.@X",
"H.H.t.5.H.#XR @ H.OX@XH.5.:.0.H.5.m.R.!.!.H.R.I.0.H.0.5.%.H.H.t.X R R.R.I.:X].x.v.Y.Y.I.I.Y.I.I.K.R.I.I.R.H.I.R.$Xv v !.R.:.0.H.",
"-X-X$X@X-X-Xe.= @X*X-X*X@X@X$X-XR.!.#X*X*X#X@X*X@X@X-X&X@X=X&X@X- 9.-X~.H.%X<X~.~.^.!.~.#X#X$X*X#X$X$X$X$X#X@X*X$XM M @X-X@X&X=X",
"z x b c b b y & c b b b m n c b n z z z c c z z z b b c b z b c & * z c z z c v < c c c c b b c c z z z z z c c v # = z z c M z ",
"* = = y = = y z y = y = y = = = z = = = = y = = y = = = * % = t y y y s b & = l r y r y r r r t = * = = = = * * s = y - = a s % ",
"$.m b M G D m G G G G G M M M M b n G Z m c M J ! m M Q M f f m F D F G n G J n K n J D D J H J G M M M M M M I G c M $.c c M ! ",
"I $.4.$.$.q.w.4.w.$.w.4.$.w.K $.$.%.K $.$.4.4.4.q.M w.q.r.y s w.w.$./ G 3.q.4.K w.P K w.w.p.@.w.w.3.4.3.$.P $.$.$.$.$.4.$.$.4.$.",
"3.3.4.G M K J M K K K $.$.$.4.3.4.4.3.4.w.4.4.w.K n M G w.c c ,.=.3.u.u.@Xe.6.6.t.e.3.q.w.K G I G M G $.$.$.$.$.q.q.6.4.q.q.3.q.",
"e.4.K m n n n b G M M G K $.4.3.4.4.4.4.$.$./ / M b n b w.G o.=.R W ~.%X~.I.m.t.I.0.:.R R I c c x M M M G K R G 4.4.4.4.4.4.4.4.",
"3.4.Z M n M G G K K K K K $.4.$.K 4.w.4.w.$.G G 4.G G G w.m G o.R 0.I.~.I.W 0.0.W :.R R R v I v M G M G K G J / w.4.4.4.4.4.4.4.",
"4.q.,.o.$.w.,.$.w.w.$.w.$.w.w.8.4.w.q.w.w.w.w.X.r.J @.X.w.a b w.:.:.%.R R R 3.0.%.$.R =.8.I I [ o.@.@.w.X.w.X.w.q.3.w.q.e.4.4.4.",
"G J o.o.J J J J J J J J G J X.O.G J J o.X.X.F J X.F ..F @.t a X.G M M D M G M G K D G / ! I } Q F ........X.X.J J G J G J G J K ",
"s f s f f f f f f f f f f f f f f f b f f f f f f f j d k t i S f j S j S S S j S S j k f f f j d f f f f f f f f f f f z f b s ",
"% * * * = = y y y y = y t * * = y * t t = t t = t = t % f y t t r r p r r p p r r r r y i y t s t * * t t t * = t = t = = = = = ",
"I.R.R.H.B.!.!.F.I.I.R.t.= M s.s.H.@X$XH.t.R.I.R.I.R.H.K.R.R.H.I.!.H.I.#XG.R.#XG.+XK.K.R.H.K.K.H.I.l.l.I.R.~.I # u.~.u.R.R.R.B.I.",
"Y.`.[.[.).[.[.).D.).:XB.; 3.&X0.7.m.!.!.!.!.Q.Y.Y Y.^.T.I.x.Y.].d.^.Y.z.`.E.z.'./.F.U.Y.].[.[.].}.).).T.].#XR @ y.t.0.0.!.Y.Y.Y.",
"Y.[.3X5X5X4XXX_.).[.:XM.; R I.R E m.Y.^.Q.Y.F.z.Y.1X1XY.Y.'.Y.v.x.).].'.'.'.).>X'.F.F.).3X5X5X3X3X3X|.:X:X:XR @ @Xt.L L K.'.D.U.",
"Y.].{.XX>X[._./.>X(./.x., U H.W Y z.Y.'.Y.M.z.d.).1X5X).(./.v.x.'.[.1X[./.'.>X>X/.L.x./.[.3X{.[.[.).`.;X;X#X7.> @XH.L L K.W.D.D.",
"x.b.(././.b.b.c.(.c.S.F.5 l.!.M.k.f./.U./././.b.z.(.XX3X[.b.v./.v.5X(.V F.f.f.5X/.b.F.c./.(.b.).'././.K.;X#XG.C OXK.n.n.K.'.S.L.",
"v.v.b.v.c.c.c.b.x.c./.F.5 M.%XE z.Y.Y./.F.Y./.Y.d.g.'.XX6X[.b.(.v.).f.6 6 V k.).F.Y./.b.v.b.v.b.L.L./.Y.J.J.V.B K.K.B.B.U.U.L./.",
"Y.v.Y.b.b.x.b.(.x.F.'.D.1 m.R.E x.F.Y.Y.Y.T.Y.v.Y.v.f.Y.7X7X[.Y.T.z.x.k.4 6 D.Z.Y.U.Y.Y.Y.v.Y.v.x.v.Y.Y.F.Y.B.5 C.F.l.k.T.v.b./.",
"Y.U.U.Y.U.U.Y.U.'.B.F.!.C 7.#XR.U z.T.Y.Y.Y.Y.Y.Y.Y.k.d.].3X3X1XY.'.M.Y E E 0.Y.Y.!.E.Y.Y.Y.Y.Y.U.v.Y.Y.Y.Q.W 3 !.I.T T v.v.v.v.",
"!.!.!.!.I.!.!.K.!.!.H.K.M t.s.3.R.R.R.R.~.R.I.I.I.!.Q.B.E ^.<X!.R.R.I.R.@XR.!.@XR.I.H.R.~.Y.!.R.I.Y.I.m.I.%XI.3 R.R E I.Y.I.v.I.",
"#XR.#X#X#X#X#XR.R.*X@Xt.m e.@X@X@X$X$XR.!.R.$X@X#XR.R.$XR.%X,X!.$X$X$X@X@X@X@X@X*X#X#X*X#X#XR.!.~.!.$X@X$X@X5.= $XR.R.#X$XR.~.T.",
":.%.%.%.3.:.,.3.o.q.3.$.= G w.8.$.=.=.=.:.:.3.3.6.$.%.7.:.:.3.3.,.,.q.q.,.q.w.q.$.$.%.4.%.%.:.:.:.$.q.e.q.q.G e J r.r.w.4.$.,.3.",
"* $ * $ & # & & & % & =   & % % % # * + * + * # + + & = = + & & * & + * % & & & % % & & & + $ = * % * t r r r % % r e % % * e * ",
"m m n m c c G m G = e J M G n b m c m c c c M m * l D m b n n M c m m m n n D n n M n n M x n m G M m G m D D G D D b r S D G D ",
"Z I K K K / / J w.r & w.J $.J J o.X.o.G o.G G G * n G M G w.K K $.$.$.J J K K K P K K K Z K Z Z G M $.G ! / $.J w.J b y D P J J ",
"6.3.6.3.w.q.q.q.e.m z w.G $.$.w.X.$.$.w.4.4.q.w.l K w.K e.e.w.K q.4.4.K %.$.e.w.e.e.K e.H.t.t.e.9.9.0.0.:.0.t.:.t.e.x z =.q.R 3.",
"%.4.4.4.4.4.$.4.4.M J q.b G n n M G Z M K K $.$.n 6.K K e.6.n n K Z n n n M G K 6.K K e.OX#X#X@X^.R.~.I.W W t.R R.H.M c 0.:.R :.",
"6.4.4.K R =.=.3./ J J w.G D D C %.M C K 5.K K 5.n Z 7.7.%.n Z 4.x n 6.m / c / $.3.K K 7.H.*X#XH.I.W.m.5.C.m.0.I.5.t.Z x 3.6.Z 6.",
"e.4.3.6.:.8.=.,.r.b S P P K P K q.Z K 6.e.7.6.6.l M e.e.4.$.6.L K 5.w.G @.J w.q.e.6.E 5.e.t.t.H.7.H.7.E 7.0.E H.:.5.x < $.q.K e.",
"K J K $.=./ I I w.t y X.P D K P J X.G J w.X.J o.t m P J } ....J %.Z G M @.X.J X.$.K Z Z Z Z K G M / J M o.o.M I X.F s a F ..J @.",
"G n b c c m c m M t f J J b n G F F F k F F F k e f F F F F F b m n c F  .F k m b c m M n M n m F F J F F F m k m F f a F F S k ",
"= % % + & & * % * % e % y % & + * = t * t t * % o o % 7 * o * = + + * * o o O * & % $ % = = = e t o o t t O O * O * % o t t e o ",
"P w.w.e.q.3.8.w.w.w.D = 4.4.6.K q.q.,.,.,.3.,.6.e.,.$.,.3.,.3.q.5.R 3.O.t F a.@.q.q.4.4.4.w.w.w.w.f b o.w.O.8.w.,.,.,.$.O.,.q.,.",
"*X*X*X#XR.R.@X&XOX&X4.& @X#X%X:X:X`.U.!.~.U.^.:X:X:X].].:X].].Q.<X$X$Xs.= 8.=Xa.OX#X*X*X#XOXOX@X@XM Z R.%X$X^.:X%X].:X:X`.:X:XQ.",
"#X+XG.A Z U 0.R.Z @XK $ !.!.^.2X[.).v./.b.v.).XX X3X3X3X3X3X[.F.1X!.$XR.+ 3.-XM G 7.#X;X+Xe.w.4.$XB B ].<X).[.[.1X1X1X4X4X3X[.F.",
"K.#XV.Y E M.H.E #X!.5.; K.x.^.3XXX(.b.b.g.b.(.oXoXXXXXXX{._._. X'.[.:XB.= R u.R B H.#X;XK.5.L 5.!.Y Y U.U.>X[.g.XXXXXXXX4X{.{.c.",
"K.J.F.z.x.I.Y.B.K.K.n.: E.Y.).XXXX(.b.b.c.g.b.(._.b.(._.(.b.b.(.x.'.^.B.1 W K.R h.D.S.J.W.A.A V F.V V '.U.).).(.(.(.).(._._.b.c.",
"P.U.Y.'.U.Y.Q.Q.K.W.V.4 Y.v./.).1X).Y.Y.b.v.x.Y.v.v.Y.b.b.x.v./.x.v.'.Y.B 0.K.E Y z.L.F.D.k.h.n.#XB Y :XI.Y.Y.T.I.Y.Y.v.F./.L.L.",
"'.F.F.'.U.Y.F.Y.K.;XK.4 '.v.v.). X'.T.Y.].Y.Y.Y.Y.Y.Y.Y.U.I.Y.Q./.v.Y.Y.B H.!.m.V Z././.D.z.j.K.*XU Z -XR.I.M.I.B.I.Y.M.F.Y.P.P.",
"D.z.d.z.z.k.Y E K.;XN.4 Y.Y.).[.:X^.B.I.~.I.I.Y.Y.Y.Y.I.R.I.Y.U.'.F.F.B.3 0.!.m.F.U././.).Y.h.E #XR Z #XR.$XH.R E W B.B.m.C.!.!.",
"'.B.E k.l.E E U K.#X7.; Y.Y.T.].[.Q.I.Y.U.!.Y.Y.Y.~.Y.!.Y.Y.Y.I./.F.!.!.B 0.K.0.m.Y.D.Y.L.F.h.l.!.v v !.I.Q.H.U U E W B.H.C.I.!.",
"Q.Y.M.I.I.I.m.t.@X#X6.$ K.I.Y.v.).'.Y./.'.Y.Y.'.Y./.Y.U.Y./.U.Y.D.E.#X!.x 0.$XH.Y F.U.Y.Z.l.B.!.`.1 1 K.U.U.F.k.k.z.Z.M.F.D.W.E.",
"!.U.~.Y.R.!.R.OX@XOX%.$ K.!.T.Y.v.Y.v.Y./.v.v.Y./.Y.Y.Y.Y././.Y.F.Q.W.t.= %.#X$X~.Q.U.Y.Q.Y.I.Y.`.1 : Q.'.Y.F././.'./.Y.U.U.'.E."
};
