/* XPM */
static char *f735a2b81b4644a5f897232048390443o8OdeBrQbZA551w0[] = {
/* columns rows colors chars-per-pixel */
"64 64 256 2 ",
"   c #0F3D55",
".  c #073B66",
"X  c #143D76",
"o  c #193D64",
"O  c #253C6C",
"+  c #19495B",
"@  c #124651",
"#  c #385659",
"$  c #294F54",
"%  c #3C705C",
"&  c #05476B",
"*  c #18486B",
"=  c #06556D",
"-  c #0B4977",
";  c #144A75",
":  c #1C4A74",
">  c #1A437B",
",  c #134C7B",
"<  c #1C4C7C",
"1  c #154476",
"2  c #0A5577",
"3  c #17587B",
"4  c #125B62",
"5  c #23486A",
"6  c #285464",
"7  c #234A7B",
"8  c #264877",
"9  c #275579",
"0  c #365979",
"q  c #36546B",
"w  c #076777",
"e  c #05747C",
"r  c #0B6C77",
"t  c #25677C",
"y  c #307274",
"u  c #636A5A",
"i  c #495871",
"p  c #4B6976",
"a  c #6F7A73",
"s  c #445159",
"d  c #728A6B",
"f  c #448179",
"g  c #8C9374",
"h  c #82A072",
"j  c #1B4682",
"k  c #1C4B83",
"l  c #174988",
"z  c #1A5686",
"x  c #015A98",
"c  c #19528E",
"v  c #224983",
"b  c #265787",
"n  c #355886",
"m  c #224D95",
"M  c #255893",
"N  c #345B96",
"B  c #1A6987",
"V  c #177689",
"C  c #0E6C8D",
"Z  c #266688",
"A  c #38648E",
"S  c #257489",
"D  c #286694",
"F  c #366695",
"G  c #277597",
"H  c #37769A",
"J  c #3A728B",
"K  c #055EA3",
"L  c #0661A4",
"P  c #0964A5",
"I  c #0B6BA6",
"U  c #0B67A8",
"Y  c #0D6DA9",
"T  c #076BA6",
"R  c #0C72A7",
"E  c #0E75AA",
"W  c #0E7AAA",
"Q  c #0C7BA5",
"!  c #1174AB",
"~  c #107AAA",
"^  c #1078AB",
"/  c #117DAA",
"(  c #117AAD",
")  c #127EAD",
"_  c #147FAE",
"`  c #1676B1",
"'  c #116FAB",
"]  c #3876A6",
"[  c #305FA3",
"{  c #476889",
"}  c #436696",
"|  c #43759A",
" . c #6A7886",
".. c #667999",
"X. c #4C72A6",
"o. c #405B8A",
"O. c #237FC0",
"+. c #138A8D",
"@. c #28879A",
"#. c #249599",
"$. c #318D94",
"%. c #32A99C",
"&. c #1380AB",
"*. c #1582AD",
"=. c #1484AD",
"-. c #168BAE",
";. c #188BAE",
":. c #1787AC",
">. c #1993AE",
",. c #1B9AAF",
"<. c #1795AC",
"1. c #168DB1",
"2. c #1A8CB1",
"3. c #1986B4",
"4. c #1692B1",
"5. c #1A93B2",
"6. c #1C9CB3",
"7. c #1E94B8",
"8. c #0F8CAC",
"9. c #2A99A4",
"0. c #3896A7",
"q. c #219CB5",
"w. c #2296BB",
"e. c #3E99B3",
"r. c #3488A9",
"t. c #1EA2B3",
"y. c #1EAAB5",
"u. c #19ABA0",
"i. c #37A5A9",
"p. c #21A4B5",
"a. c #22ABB6",
"s. c #22A5B9",
"d. c #23ADB8",
"f. c #2DA9B5",
"g. c #24B5B6",
"h. c #24BAB6",
"j. c #24B3BA",
"k. c #29B5BB",
"l. c #25BBBB",
"z. c #2BBCBB",
"x. c #34BBBB",
"c. c #38ACB2",
"v. c #549190",
"b. c #6D8F8E",
"n. c #458CA7",
"m. c #479CAB",
"M. c #4798B6",
"N. c #5690B9",
"B. c #708EAE",
"V. c #48A6B8",
"C. c #45BABC",
"Z. c #4FA9B1",
"A. c #72A6B3",
"S. c #76AE93",
"D. c #26C3BC",
"F. c #2BC3BD",
"G. c #2CCBBD",
"H. c #2ACABA",
"J. c #32C4BD",
"K. c #32CCBD",
"L. c #38C3BB",
"P. c #2DD2BE",
"I. c #2BD9BC",
"U. c #33D4BE",
"Y. c #33DABF",
"T. c #3ADEBC",
"R. c #33E8BD",
"E. c #47C8BA",
"W. c #53CCBD",
"Q. c #299CC2",
"!. c #2DB8C1",
"~. c #37BFC8",
"^. c #35ABCE",
"/. c #5593C7",
"(. c #51B1C5",
"). c #6CB9C4",
"_. c #4CB0E5",
"`. c #2DC5C1",
"'. c #2CCCC1",
"]. c #27CAC2",
"[. c #33C3C2",
"{. c #32CEC2",
"}. c #3AC8C5",
"|. c #2ED3C2",
" X c #2CDAC4",
".X c #33D4C2",
"XX c #3AD4C3",
"oX c #35DBC3",
"OX c #3ADCC4",
"+X c #3BD9CB",
"@X c #3ED7D2",
"#X c #2DE3C4",
"$X c #34E3C5",
"%X c #3BE3C5",
"&X c #35E5CA",
"*X c #3BE3CB",
"=X c #3CEACC",
"-X c #35EAC7",
";X c #3CF5C3",
":X c #3DEAD2",
">X c #3EF3D1",
",X c #46C8C8",
"<X c #56C4C8",
"1X c #45D8CB",
"2X c #56D6CA",
"3X c #4AD7D3",
"4X c #55DAD6",
"5X c #55C7D6",
"6X c #66C6C5",
"7X c #68CCD7",
"8X c #69CFCF",
"9X c #46E9C6",
"0X c #56E6CA",
"qX c #57F1CD",
"wX c #46E9D4",
"eX c #54E8D9",
"rX c #48F5D2",
"tX c #57F4D8",
"yX c #49F4C7",
"uX c #64EAD7",
"iX c #66F8D7",
"pX c #75FDDC",
"aX c #79F8DD",
"sX c #6EECD2",
"dX c #4EC4E7",
"fX c #6CDDEA",
"gX c #5AE7E3",
"hX c #79E7E6",
"jX c #69F9E5",
"kX c #74FCE3",
"lX c #7BFCE2",
"zX c #7BFDE9",
"xX c #77F7E6",
"cX c #71F0F1",
"vX c #8B9B94",
"bX c #918F97",
"nX c #8CAC98",
"mX c #8C99AD",
"MX c #93B0B0",
"NX c #A8B7B6",
"BX c #AFC6B5",
"VX c #A3CDA9",
"CX c #8CA2C8",
"ZX c #9EB9DE",
"AX c #B2D5CE",
"SX c #83FCDE",
"DX c #82CFE2",
"FX c #85EAE8",
"GX c #86F8EA",
"HX c #92FBEB",
"JX c #84FDF4",
"KX c #89F9FB",
"LX c #98F9F7",
"PX c #90E8F8",
"IX c #BBE1D2",
"UX c #CCEDED",
/* pixels */
"K U K K K K K K K K K K U U K K L K K K K U L L x L L L K P K K K K K K P K P K K K K K K P K P P L K K K L L L L L L L L L K L ",
"P K K K K U U K K U P K K K U K L L U K K K P L U L ' x c P K U K U P K P P P P L L P P K P P P K K L P P P L L L L L L L L L L ",
"P P K ' K T U L U P P P P K U U P P P P U P P P U c x P I P P P U U U P P P P P P P P L P P P P ' Y L P P P P P L P P P P P L L ",
"P U U U L T U U U U U P U P U U P U U P U U P P P ` _.P P U U P U U U U U U U U U P U U U P U U O.` L L U U U U T P P T P U U T ",
"P ' Y L Y Y Y Y Y P Y Y U U Y U I I U I I I I T I ` _.C U ' I ' U I I I U U U I Y U U I U I I U ` U L Y Y Y U P I U I U T Y U U ",
"T Y T T Y T T Y Y Y Y Y Y Y Y U I I I I I I Y T I I x ' ' P I I I Y I Y U ' ' I Y Y Y Y Y Y Y Y U T Y Y Y U Y E Y Y Y Y Y Y Y Y ",
"T R ( 3.Y Y T T Y Y Y Y Y Y Y Y R R R Y I R Y R R I ! I R ! ' ' Y Y Y Y Y Y I Y Y Y R Y Y R Y Y Y Y E E Y T Y R Y Y Y T Y Y Y Y ",
"R R 3._.( E E E R Y ' R R Y E R I R R R R R R R R R R ! I R C ' R R Y R R R ' R R Y E R Y R R R Y R Y R Y E Y T R R Y R R R T R ",
"R W E W W R E ! E E R ! ! E ! E E R ( R E E T ( ! E E ! ! R ! E ! E E E E E E ! ^ R E ~ ! R E E E E E E E E E E E R R E ! E E E ",
"W R W W W R W W E W ~ ! ! ! ~ E ) E ( E E ( ( ( ( E ( ( ^ ^ ^ E ~ ! ! ~ E E W E R ( ( E R ( ~ R ~ E ~ E W ! W E E W ~ E E ~ W E ",
"W Q W W W W Q E ~ ~ ~ ~ ~ ~ ~ ~ W W E W ( W ( ( ( ( ( ( ^ ( ( ( ( ~ W ~ W W W W E W R Q ) ~ E ( ~ / ~ ~ ~ ~ W ~ W W ~ ~ ~ ~ ~ ~ ",
"8.W W W ) ) / / ~ / ~ / ~ ~ ~ / W W W *.*.W ( ( ( ( ( ( ( ( ( W ~ / / / ) ) ) W =.3.) ~ =.Q R =.~ / ~ / ~ ~ ( / ) ~ ~ / ~ / ~ ~ ",
"( *.) &.) _ / _ / *.*./ _ &._ &.*.&.W =.3.( &.( ) ) _ ) ) ) ) ) ) &.&.&.&.&.*.W 3.Q.w.W ) 3.*.W / _ _ / ) *.W ) ) / ) &.) _ ) _ ",
"W *.*.*.) ) =.=.*.*.*.*.*.*.:.&.=.=.2.&.&.*.8.&.*.*.) 3.*.*.=.*.*.:.&.&.*.=.*.W *.w.2.&.W *.*.*.=.=.*.&.*.*.:.*.=.=.=.*.=.=.&.&.",
"*.=.&.=._ r.3.:.:.*.:.*.*.*.&.:.1.Q._.w.8.*.=.=.=.*.*.*.=.=.*.*.*.=.=.&.=.=.1.*.=./ &.&.=.&.=.-.:.&.:.&.*.=.=.=.=.=.=.=.*.=.:.:.",
":.=.=.=.2.2.2.:.:.:.3.:.3.:.:.:.w.dXcX^.3.8.=.8.3.3.8.3.=.3.:.:.=.-.-.=.1.2.2.2.3.:.=.-.-.-.1.=.:.-.3.:.:.:.3.:.:.:.:.3.:.:.3.:.",
"2.-.;.;.3.;.;.;.:.2.:.;.2.:.2.-.7.^.dXQ.4.8.1.1.1.-.1.:.3.-.2.1.:.:.&.w.Q ^.fX:.;.-.;.;.;.2.;.-.1.-.1.-.-.-.1.-.5.=.5.&.;.;.;.2.",
";.1.-.-.-.-.-.;.1.-.2.-.;.1.-.-.1.4.^.4.4.4.1.1.1.1.1.1.2.1.1.2.>.>.:.;.2.1.7.8.;.;.;.;.;.>.-.;.1.1.1.1.-.;.;.-.;.>.-.;.;.2.;.:.",
"2.5.;.5.2.>.5.2.2.5.5.4.2.5.;.4.4.8.5.8.4.4.1.4.5.2.5.5.1.2.5.2.;.;.5.;.5.-.:.5.<.;.>.;.-.>.>.5.>.4.1.4.>.>.;.>.>.>.;.2.>.:.2.w.",
"5.4.5.5.5.4.5.5.5.4.5.4.5.4.5.5.6.4.5.5.7.7.4.4.2.5.7.5.5.5.5.5.>.8.6.>.-.6.q.<.>.>.>.4.5.>.>.5.<.4.4.<.>.>.>.>.;.q.>.q.;.>.q.;.",
"4.6.6.4.5.4.5.5.4.6.4.4.5.4.5.4.4.4.4.6.4.7.4.6.5.5.5.5.5.q.5.>.6.6.<.<.5.4.4.4.5.>.<.5.5.6.>.4.5.6.<.,.<.5.>.,.>.5.cX<.q.w.>.q.",
"7.4.6.6.6.6.6.6.6.6.6.6.6.6.6.6.t.6.6.4.6.6.6.4.6.6.6.5.5.>.q.,.<.q.<.5.6.6.6.6.6.6.6.6.6.6.6.>.5.,.6.<.,.6.,.,.>.q.f.q.9.6.>.;.",
"6.6.6.6.6.6.6.6.7.6.6.6.6.6.6.6.t.6.6.6.t.6.t.4.6.6.6.,.q.q.q.,.6.6.6.t.,.6.6.<.6.6.6.6.6.6.6.6.6.6.6.6.6.,.,.,.q.q.8.q.,.>.q.s.",
"6.t.6.6.t.6.6.6.t.6.6.t.6.6.6.6.4.t.6.t.t.4.t.y.,.p.6.t.q.,.q.t.t.6.6.6.t.6.6.t.6.t.s.s.t.,.6.p.6.t.6.t.,.t.,.t.,.t.s.,.q.p.q.,.",
"t.6.t.t.t.t.6.t.6.6.t.s.q.q.p.p.y.t.t.t.t.t.t.t.t.,.,.p.p.t.q.,.t.p.p.q.t.6.6.p.6.6.p.6.6.p.p.q.6.s.t.6.t.6.6.t.t.t.t.6.t.t.6.t.",
"t.s.s.s.,.t.t.t.s.s.s.t.p.p.p.p.y.t.t.t.t.t.t.t.}.k.p.t.t.p.t.t.6.p.p.p.p.p.p.p.t.y.p.p.p.p.p.s.s.s.s.s.t.y.p.p.t.t.s.t.s.t.y.Q.",
"s.p.p.t.}.Q.t.s.a.p.s.s.a.a.a.p.s.y.y.y.p.y.p.p.k.a.t.t.a.a.a.a.p.p.a.a.a.p.p.p.d.y.y.y.p.s.a.s.s.s.s.y.a.t.s.a.a.p.a.s.s.s.s.s.",
"p.p.d.k.cX~.p.y.s.a.s.a.s.a.s.y.a.y.y.y.a.a.a.a.t.y.y.a.d.p.p.a.a.a.s.s.a.a.a.p.Q.y.y.y.s.a.a.s.y.s.y.d.d.d.a.a.a.a.a.a.d.d.s.d.",
"j.a.y.t.t.g.d.y.a.d.y.a.a.d.d.d.a.a.d.d.d.a.d.d.a.g.d.d.a.a.d.d.j.y.y.j.d.d.a.a.d.d.y.d.y.j.d.y.d.d.s.j.j.!.s.a.y.j.j.y.d.d.d.d.",
"d.j.j.j.y.y.j.j.g.d.j.y.j.d.j.y.d.j.d.d.d.d.d.d.d.d.a.d.d.j.d.k.y.y.g.y.d.j.j.d.d.d.j.d.d.d.d.j.j.d.d.d.k.j.d.d.j.y.j.y.d.j.d.d.",
"j.j.j.y.[.y.y.j.g.j.g.g.j.j.j.j.j.j.j.j.j.j.j.j.k.j.k.d.j.d.d.a.!.j.j.y.j.j.j.j.d.j.d.j.!.j.l.d.d.j.j.d.j.g.j.g.j.j.j.j.j.j.l.d.",
"g.j.g.g.j.l.l.j.j.j.j.j.j.h.j.j.j.j.j.j.j.k.k.k.g.j.k.k.j.j.z.!.!.!.j.j.j.j.j.j.j.l.j.j.j.l.j.j.!.j.l.!.j.j.j.j.g.j.j.j.j.d.l.j.",
"h.h.k.k.j.l.z.j.h.h.z.k.l.l.k.k.k.l.l.l.k.z.g.l.j.z.g.g.z.g.j.3XgXj.k.z.l.`.j.h.l.k.l.k.g.j.j.l.l.k.k.k.!.j.!.j.!.l.l.l.l.j.k.k.",
"h.z.x.z.!.l.z.z.l.D.z.l.l.l.z.k.h.l.z.l.h.l.l.l.k.F.k.l.F.j.g.[.}.y.z.l.g.l.l.l.l.k.z.z.!.l.l.h.l.g.L.z.l.l.l.l.l.l.l.l.l.l.z.l.",
"D.D.z.z.D.D.z.z.D.l.z.z.`.D.!.F.l.l.D.l.l.F.!.D.h.F.z.z.`.z.l.z.l.g.`.z.l.F.l.l.z.k.z.l.F.z.`.l.F.g.3X}.l.`.`.l.!.D.l.D.h.z.z.F.",
"D.D.z.z.].D.J.z.D.D.z.z.l.`.D.D.F.D.!.].}.1X'.l.!.H.`.D.F.[.[.F.`.z.`.l.F.`.!.F.~.z.3X`.J.l.'.D.F.z.4X,Xh.].`.z.].!.`.D.F.D.D.F.",
"F.D.F.F.`.D.J.J.J.F.J.F.D.D.D.].F.D.F.H.@XwX@X`.'.D.H.F.l.F.F.F.`.F.F.l.F.[.J.J.x.}.cX3XF.F.D.`.F.H.4X}.h.H.!.x.[.J.J.J.H.D.].].",
"J.H.{.F.H.G.J.J.K.J.J.J.'.G.].H.'.H.`.H.'.+X'.`.'.D.F.`.H.F.G.G.H.H.G.G.`.F.K.[.x.}.jX@XJ.K.D.G.H.J.1XL.`.{.x.,XJ.J.J.J.G.H.].].",
"'.'.`.G.G.K.K.K.K.H.H.K.'.'.H.'.].G.'.H.H.G.H.H.G.H.G.{.{.G.`.G.G.'.{.{.G.H.G.J.K.J.XXJ.G..XH.G.H.H.2X,X}.k.#.E.}.L.K.K.'.'.].].",
"'.'.'.G.G.K.K.U.G.P.G.H.P.'.|.G.P.G.'.G.'.'.H.|.{.{.G.G.G..XG.H.G.G.H.H.G.'..XH.G.{.`.G.{.K.H.U.H.L.jX5X,X,.w V.}.K.[.K.K.'.].|.",
"|.@X'.'.U.U.H.H.|.P.H.|.'.'..XK.|.|.G.|.|.|.{.K.{..X{.G.G..X.X{.U.K..XP.G.|.H.|.|.|.|.|.'.K..XK.H.K.uX<X<X9.2 S ,XJ.XXJ.K.{.{.|.",
"]. X|..XP.U.U.oX'.XX X X.X.XXX{..XU..X|..XK..X.X.XU.K.XXXX.XK..XP.P.|..X.X X X|. X|.|.|.OXU.U.XXU.{.KXfXV.S 3 n.<XXXG.{.XX.X'.|.",
" X X|.oXU.U.U..XXX}.{.`.+X.XXX.X.X.X.XU..XU..X.X.XU..XP..X.X.XU.oXU.P.U.P.|.|.|.|. X X|..XU.K.U.K.1Xx.5Xr.. n 3 q.3X{..XXXU.+X X",
" X X X.XU.OX.X.X3Xc.}.@X.X.XOXU.U.oXoXoXoXoX.XoX.XoXoX|..XoXOXoXoXoXoXOXoX X+XoX X|.$X XY.XXOXU.1XU.e e.Z z N , V ,X1X.XU..XOX.X",
"#X#XY.U.OXXXoX1XC.r #.4XXXOXY.T.oXY.oXoXoXoXoXY.$XY.OXrXrXOXI.OXI.oXoX%XOXXX1XXX+XoXoXoX+X$XoXoXT.,Xe r.l D l b B i.3XXX9XoX XoX",
"#X-XY.OX9XU.OX4XV = $.5X1X*XoXI.Y.oXoXoXoXoXoXoXOXoXOXwXwXoXoXOX X$XOXXX1X1XU.XX+X@X*XU.oX&X XOXoX3XV H M X l c z <.3XXX+XoXY.%X",
"#X-XT.%X%XOX1Xx.Z.A & 0.4X+XI.;X-X$X$X$XOX-X%X$XoX$X%XOXoX$X%X&X-XoX$XY.wXeXx.L.0XH.XX*XOX&X&X&X@X3XV & M l M c 2 C 5X+XI.R.&X%X",
"R.$XXXT.9X1X4X+.t X.2 V ,X@X=X#X&X&X&X&X&X%X%X&X&X&X$X&X&X&X-X9X-X$XwXXX4XE.+.e fX+.u.wX&X+X-XOX*XgXC - c [ m c l = x.eX&X-X-XY.",
"qXtXwXtX0X2X<XB ; b A Z V.4X1X+X&X&X&X&X%X9X=X-X&X-X-X&X&X&X-X=X9XT.9XwX4X#.& 2 J $.u.gXOX*X=X*X3Xf.2 /./.m m v l - V (.:X-X-X-X",
"zXzXzXkXaXGXG F < 1 * b w xXcXtXtXrXwX=XT.9X%X=X>X-X$X>XwX-X=X9X9X9X=XeXC.= c j v = 0.eXwX=X-XyXwXe - F X.X X v j z & #.eX-X>X-X",
"aXpXxXaXHXm., j F N.A 1 ; 0.cXzXjXtXjXtXqXqXqXyXqX9X9X9X9XR.9XtXrX:X%X2XG - > j j 2 i.0X9X;XR.;X9X2XS . * p p + : ; 0.eXwX>X>X#X",
"pXpXSXFX+.= l j : | H N ; = r xXjXpXzXkXkXzXjXiXiXsXqX9XyX9X0XiX:X&XrX%.2 l : : X , C E.yX;XR.;X9X0XG @ vXAXBXVX* & %.uXwX:X;X>X",
"pXsXSXHXDXJ l j ; < j l ] Z 8XpXpXpXpXxXGXxXsXJXGXpXaXpXiXiXqXkXeXwXtXf.- X  .MXn - w 3XrXR.R.yX0XW.S @ nXd d nX: & i.gXgXtXrX;X",
"iXSXHXHXPXJ ; * 0 0 7 v N b FXaXpXpXpXlXJX#.8XJXxXaXlXlXiXpXlXJXjXjXcX<X2 8  .mX} & C gXrX;XtXqX%.C.B   VXnXh VX5 - c.gX<.J.0XyX",
"pXSXHXLXPXy @ b.NXBXB.+ 0 H aXaXkXkXuXGX7X& M.7X2XkXxXpXpXpXJXW.xXHXLXM.X 7 mXMX} & C 4XqXqXW.%.i.9.D * AXVXVXIX+ & i.hX= +.jX9X",
"SXsXHXHXHXt @ nXg d mX+ 8 Z hXzXkX0XE.hXr.& r V.(.JXaXxXaXGXhXw FXA.S D m O O O 8 : 2 fXuX9X%.0.i.M.c ; y % % % : - V.m.w = x.iX",
"6XHXGXFXKXy @ vXg g b.6 * D GXlXuXE.E.m.3 3 , z 7XJXlXaXGXGXKXB n.y - M D 1 : 8 8 b F PXJXiX%.0.e.e.M 1 8 * : * l c ] z z 3 #.qX",
"$.<XFXGXcXt + AXBXvXA.* , B FXlXxX,XC.S * > b . V.KXGXW.sXFX0.3 o : m l b N.< : v n A N.hXKXi.0.0.M.z b : : 3 ; l l l k X 9 +.2X",
"0.c.7XPXr.= 4 { { i F ; l B FX0XaXC.$.t A N m b 3 0.6X%.m.FX3 ; : < k m m N.A { N X > > C (.M.0.e.0.D X 5 b.v.% > m v : A.6 S 4X",
"i.r.(.$.& * * : X v , j j z 6XZ.%.C.m.J { ..n v H Z.m.$.%.8XZ : : 9 8 O v v n 9 O O o.O 1 2 z e.e.M.Z . MXIXS.v.* k > n UX# r.7X",
"0.n.Z : p 0 0 5 b l n n v n r.0.9.V.).: X ZXX.. H DXZ.Z.Z.m.9 5 v.S.bXbX8 j > 8 o.NXbXbX..o G (.^.M.z + S.d % f 5 7 k 7 { $ t (.",
"i.0.1 n CXa MX0 , X o.UXB.X /.M.e.(./.t O CXX.k z N.A.6Xm.m.< A B.u a bXo.j l *  .bXu bXmX8 b B B D 3 + MXVXf Z.: 7 v 7 b.q t S ",
"0.0.9 { MXd MXp > b q B.A k H G G G S 3 : CX[ X D n.n.v.r.r.z D A...vXNXn k b * ..NXa mXCX0 7 Z B Z z * MXMX$.A.3 < k 0 IX# S N.",
"G S : { vXu vXi 7 X 5 o 7 b r.V D G M.z & ZXX.l c S S t S D l z 9 q # s 8 k : * s s $ q i O A ] H H M ; 6 $ 4 3 , v l 6 v.# Z /."
};
